<svg xmlns="http://www.w3.org/2000/svg" version="1.1" xmlns:xlink="http://www.w3.org/1999/xlink" xmlns:svgjs="http://svgjs.dev/svgjs" viewBox="0 0 800 800"><defs><linearGradient x1="50%" y1="0%" x2="50%" y2="100%" id="ccchaos-grad"><stop stop-color="hsl(206, 75%, 49%)" stop-opacity="1" offset="0%"></stop><stop stop-color="hsl(331, 90%, 56%)" stop-opacity="1" offset="100%"></stop></linearGradient></defs><g stroke-width="2" stroke="url(#ccchaos-grad)" fill="none" stroke-linecap="round"><path d="M378.13 106.71C387.49 109.55 396.78 113.07 405.99 117.1 415.2 121.07 424.35 125.29 433.42 129.63 442.53 133.57 451.58 137.47 460.58 141.26 469.65 144.49 478.7 147.59 487.74 150.58 496.88 153.03 506.05 155.45 515.25 157.91 524.6 160.01 534 162.29 543.46 164.83 553.09 167.24 562.78 170.06 572.51 173.32 582.39 176.67 592.29 180.58 602.14 185.06 612.07 189.76 621.88 195.06 631.49 200.95 641.03 207.11 650.25 213.84 659.02 221.08 667.53 228.58 675.43 236.55 682.6 244.91 689.29 253.48 695.09 262.39 699.87 271.57 704 280.88 707 290.41 708.8 300.08 709.87 309.84 709.73 319.7 708.38 329.59 706.39 339.53 703.3 349.47 699.18 359.36 694.7 369.27 689.43 379.1 683.5 388.81 677.64 398.51 671.55 407.85 665.41 416.8 659.73 425.74 654.22 434.3 648.97 442.46 644.43 450.62 640.23 458.41 636.4 465.84 633.32 473.31 630.57 480.47 628.11 487.36 626.28 494.38 624.61 501.22 623 507.93 621.83 514.89 620.56 521.86 619.11 528.91 617.86 536.36 616.26 544.02 614.26 551.96 612.28 560.42 609.77 569.26 606.7 578.48 603.51 588.24 599.71 598.37 595.3 608.8 590.7 619.59 585.48 630.49 579.66 641.34 573.66 652.14 567.08 662.53 559.98 672.26 552.72 681.37 544.98 689.39 536.8 696.08 528.51 701.61 519.83 705.48 510.82 707.55 501.74 708.26 492.36 707.14 482.73 704.26 473.07 700.32 463.18 695.01 453.1 688.57 443.02 681.94 432.77 674.88 422.37 667.75 411.97 661.51 401.67 656 391.5 651.46 381.33 648.43 371.28 646.54 361.37 645.75 351.45 646.42 341.66 647.91 332.01 650.01 322.35 652.99 312.82 656.06 303.44 658.94 294.04 661.93 284.79 664.23 275.7 665.63 266.6 666.53 257.66 666.23 248.92 664.68 240.18 662.3 231.64 658.6 223.34 653.66 215.06 647.91 207.04 641.03 199.32 633.18 191.65 624.72 184.3 615.49 177.31 605.68 170.42 595.51 163.92 584.95 157.84 574.13 151.9 563.19 146.41 552.14 141.41 541.08 136.57 530.03 132.22 519.03 128.42 508.15 124.78 497.34 121.67 486.65 119.13 476.11 116.73 465.64 114.89 455.3 113.62 445.11 112.47 434.97 111.87 424.94 111.83 415.03 111.86 405.15 112.42 395.37 113.52 385.71 114.64 376.05 116.23 366.72 118.26 357.74 120.24 348.76 122.63 340.11 125.39 331.82 128.04 323.53 131.04 315.59 134.35 308.03 137.52 300.45 140.99 293.24 144.73 286.4 148.31 279.53 152.17 273 156.27 266.81 160.22 260.53 164.43 254.54 168.88 248.81 173.2 242.91 177.79 237.2 182.64 231.64 187.38 225.81 192.41 220.04 197.73 214.3 202.97 208.21 208.51 202.07 214.36 195.88 220.17 189.29 226.3 182.63 232.73 175.92 239.16 168.88 245.9 161.85 252.95 154.92 260 147.83 267.35 140.98 274.99 134.48 282.64 128.11 290.56 122.3 298.74 117.17 306.93 112.46 315.36 108.61 324 105.75 332.65 103.49 341.5 102.29 350.53 102.19 359.56 102.69 368.77 104.21 378.12 106.7" stroke-dasharray="5 4" transform="rotate(0, 400, 400)" opacity="0.26"></path><path d="M379.39 117.5C388.41 120.31 397.4 123.77 406.34 127.72 415.29 131.64 424.21 135.81 433.08 140.13 441.98 144.08 450.86 148.02 459.72 151.88 468.63 155.21 477.56 158.43 486.48 161.53 495.5 164.12 504.56 166.67 513.65 169.21 522.86 171.39 532.12 173.69 541.43 176.2 550.86 178.53 560.33 181.19 569.81 184.24 579.39 187.3 588.95 190.85 598.42 194.91 607.92 199.11 617.26 203.88 626.36 209.18 635.35 214.7 643.98 220.76 652.15 227.31 660.03 234.09 667.31 241.33 673.86 248.98 679.94 256.81 685.17 265 689.43 273.48 693.08 282.09 695.68 290.94 697.17 299.96 697.99 309.07 697.7 318.31 696.29 327.62 694.32 336.97 691.33 346.36 687.39 355.73 683.14 365.12 678.15 374.47 672.54 383.73 666.99 392.99 661.2 401.93 655.34 410.54 649.89 419.15 644.55 427.43 639.42 435.39 634.91 443.36 630.7 451.03 626.79 458.41 623.57 465.86 620.63 473.08 617.94 480.11 615.85 487.29 613.9 494.36 612.03 501.39 610.58 508.67 609.07 516.01 607.41 523.48 605.98 531.32 604.26 539.39 602.21 547.73 600.2 556.52 597.75 565.63 594.81 575.07 591.8 584.92 588.24 595.04 584.12 605.33 579.87 615.85 575.05 626.36 569.67 636.68 564.14 646.83 558.06 656.48 551.48 665.39 544.77 673.63 537.58 680.78 529.96 686.62 522.24 691.36 514.12 694.53 505.65 696.03 497.13 696.3 488.29 694.9 479.17 691.9 470.02 688 460.63 682.85 451.02 676.71 441.41 670.41 431.59 663.72 421.61 656.96 411.63 651.01 401.72 645.7 391.9 641.24 382.09 638.15 372.37 636.07 362.77 634.98 353.17 635.25 343.67 636.29 334.3 637.91 324.92 640.42 315.66 643.07 306.54 645.62 297.41 648.39 288.42 650.61 279.59 652.11 270.75 653.24 262.08 653.35 253.61 652.35 245.14 650.68 236.87 647.81 228.85 643.78 220.85 639.03 213.12 633.19 205.67 626.4 198.29 619.01 191.23 610.83 184.52 602 177.92 592.79 171.69 583.1 165.88 573.09 160.21 562.89 154.97 552.49 150.22 542 145.61 531.46 141.49 520.9 137.89 510.4 134.45 499.93 131.53 489.54 129.15 479.27 126.92 469.05 125.22 458.95 124.08 448.99 123.05 439.06 122.55 429.27 122.59 419.61 122.71 409.98 123.34 400.46 124.49 391.1 125.65 381.73 127.27 372.72 129.31 364.07 131.3 355.4 133.68 347.09 136.41 339.13 139.04 331.16 142 323.53 145.26 316.26 148.39 308.97 151.8 302.01 155.46 295.39 158.98 288.71 162.75 282.33 166.76 276.24 170.62 270.04 174.72 264.08 179.06 258.33 183.26 252.39 187.72 246.58 192.42 240.89 197.01 234.92 201.87 228.99 206.99 223.06 212.03 216.79 217.36 210.48 222.97 204.13 228.53 197.42 234.39 190.66 240.53 183.89 246.66 176.84 253.08 169.86 259.8 163.01 266.5 156.06 273.5 149.4 280.77 143.12 288.04 137.01 295.58 131.46 303.37 126.61 311.16 122.18 319.2 118.6 327.45 115.97 335.71 113.92 344.18 112.89 352.84 112.9 361.5 113.47 370.36 115.02 379.38 117.49" stroke-dasharray="10 1" transform="rotate(4.04, 400, 400)" opacity="0.19"></path><path d="M381.27 128.28C389.98 131.05 398.68 134.45 407.35 138.32 416.04 142.18 424.71 146.3 433.37 150.57 442.06 154.53 450.75 158.49 459.43 162.4 468.18 165.82 476.94 169.15 485.71 172.37 494.57 175.1 503.47 177.77 512.39 180.42 521.41 182.7 530.48 185.06 539.56 187.57 548.74 189.88 557.93 192.45 567.1 195.33 576.33 198.18 585.5 201.44 594.54 205.15 603.57 208.94 612.41 213.23 620.96 218.01 629.38 222.96 637.42 228.41 644.98 234.33 652.24 240.43 658.91 246.99 664.86 253.95 670.37 261.07 675.05 268.55 678.82 276.34 682.04 284.25 684.27 292.42 685.46 300.8 686.07 309.25 685.65 317.86 684.2 326.58 682.25 335.35 679.37 344.18 675.62 353.04 671.6 361.91 666.88 370.78 661.58 379.61 656.33 388.45 650.84 397.03 645.26 405.34 640.03 413.65 634.88 421.7 629.88 429.49 625.44 437.31 621.22 444.9 617.27 452.29 613.93 459.75 610.83 467.06 607.96 474.25 605.63 481.6 603.43 488.91 601.31 496.23 599.6 503.8 597.85 511.47 595.99 519.28 594.37 527.43 592.51 535.8 590.37 544.42 588.32 553.41 585.88 562.66 583.02 572.15 580.13 581.95 576.75 591.91 572.88 601.94 568.92 612.06 564.43 622.06 559.43 631.76 554.31 641.2 548.68 650.06 542.57 658.13 536.36 665.52 529.68 671.82 522.57 676.84 515.38 680.84 507.8 683.37 499.86 684.35 491.87 684.23 483.55 682.6 474.94 679.53 466.3 675.68 457.39 670.72 448.26 664.86 439.11 658.9 429.75 652.57 420.2 646.17 410.64 640.5 401.13 635.39 391.7 631.03 382.26 627.9 372.89 625.66 363.62 624.31 354.35 624.2 345.17 624.82 336.1 625.99 327.03 628.02 318.07 630.24 309.24 632.45 300.4 634.94 291.7 637.03 283.16 638.52 274.62 639.79 266.24 640.2 258.05 639.65 249.88 638.55 241.91 636.39 234.18 633.17 226.5 629.32 219.06 624.45 211.92 618.66 204.85 612.3 198.08 605.15 191.67 597.32 185.37 589.09 179.43 580.33 173.9 571.18 168.5 561.8 163.54 552.15 159.03 542.33 154.67 532.42 150.78 522.43 147.39 512.42 144.16 502.4 141.42 492.42 139.21 482.52 137.14 472.64 135.59 462.85 134.57 453.19 133.65 443.56 133.26 434.04 133.38 424.67 133.57 415.32 134.26 406.09 135.45 397.02 136.65 387.95 138.29 379.23 140.33 370.87 142.32 362.49 144.69 354.46 147.39 346.78 150 339.07 152.93 331.7 156.13 324.66 159.21 317.57 162.56 310.79 166.16 304.31 169.61 297.76 173.31 291.46 177.23 285.41 181 279.23 185.01 273.24 189.24 267.42 193.33 261.39 197.67 255.47 202.23 249.63 206.68 243.51 211.38 237.41 216.33 231.31 221.19 224.89 226.32 218.44 231.71 211.95 237.04 205.16 242.65 198.35 248.54 191.57 254.39 184.57 260.52 177.67 266.92 170.95 273.31 164.19 279.98 157.74 286.9 151.72 293.82 145.88 301.01 140.63 308.44 136.07 315.86 131.93 323.53 128.62 331.42 126.22 339.31 124.38 347.42 123.5 355.74 123.62 364.04 124.26 372.56 125.83 381.26 128.28" stroke-dasharray="8 4" transform="rotate(8.08, 400, 400)" opacity="0.19"></path><path d="M383.73 139.07C392.12 141.79 400.53 145.11 408.93 148.91 417.35 152.69 425.78 156.74 434.21 160.96 442.67 164.91 451.15 168.88 459.64 172.82 468.17 176.33 476.74 179.75 485.32 183.08 493.98 185.94 502.66 188.75 511.37 191.52 520.15 193.91 528.96 196.37 537.77 198.92 546.64 201.24 555.5 203.77 564.3 206.55 573.13 209.25 581.87 212.3 590.44 215.72 598.97 219.18 607.27 223.08 615.27 227.42 623.11 231.87 630.55 236.78 637.5 242.13 644.16 247.62 650.22 253.54 655.6 259.86 660.56 266.31 664.73 273.12 668.05 280.25 670.86 287.49 672.75 295 673.69 302.74 674.11 310.55 673.58 318.55 672.1 326.69 670.19 334.86 667.43 343.15 663.86 351.5 660.06 359.87 655.62 368.29 650.62 376.71 645.66 385.14 640.47 393.38 635.16 401.41 630.17 409.45 625.2 417.3 620.35 424.97 615.99 432.66 611.8 440.2 607.83 447.6 604.4 455.09 601.18 462.49 598.14 469.84 595.61 477.34 593.19 484.85 590.85 492.42 588.89 500.21 586.91 508.13 584.85 516.2 583.04 524.56 581.03 533.11 578.79 541.87 576.66 550.93 574.2 560.18 571.38 569.58 568.57 579.19 565.33 588.86 561.65 598.49 557.91 608.11 553.7 617.5 549.02 626.52 544.26 635.2 539.02 643.25 533.34 650.47 527.56 657.01 521.35 662.49 514.73 666.74 508.03 670.05 500.94 671.99 493.51 672.51 486.02 672.06 478.2 670.25 470.09 667.14 461.95 663.37 453.53 658.6 444.86 653.03 436.19 647.4 427.28 641.43 418.17 635.39 409.06 630 399.96 625.09 390.92 620.83 381.87 617.67 372.88 615.31 363.96 613.73 355.05 613.28 346.21 613.5 337.47 614.24 328.74 615.81 320.1 617.6 311.58 619.44 303.07 621.62 294.68 623.51 286.45 624.93 278.23 626.24 270.16 626.84 262.29 626.62 254.44 625.98 246.8 624.41 239.38 621.89 232.02 618.83 224.91 614.83 218.08 609.96 211.34 604.58 204.89 598.4 198.79 591.55 192.79 584.31 187.16 576.5 181.92 568.25 176.81 559.74 172.11 550.91 167.86 541.84 163.75 532.64 160.1 523.3 156.92 513.88 153.9 504.42 151.35 494.94 149.31 485.49 147.4 476.04 145.99 466.65 145.09 457.36 144.29 448.08 143.99 438.9 144.19 429.85 144.45 420.81 145.19 411.89 146.41 403.11 147.64 394.34 149.29 385.91 151.33 377.81 153.32 369.71 155.67 361.93 158.34 354.48 160.92 346.99 163.81 339.82 166.96 332.94 169.99 326.01 173.29 319.35 176.81 312.96 180.2 306.47 183.83 300.2 187.66 294.14 191.36 287.93 195.28 281.88 199.41 275.96 203.4 269.83 207.62 263.78 212.06 257.78 216.38 251.52 220.94 245.27 225.73 239.02 230.42 232.49 235.37 225.93 240.56 219.36 245.69 212.54 251.07 205.73 256.72 198.98 262.31 192.08 268.18 185.32 274.3 178.77 280.4 172.23 286.76 166.04 293.37 160.29 299.97 154.76 306.82 149.82 313.91 145.56 321 141.71 328.32 138.67 335.87 136.51 343.41 134.86 351.18 134.14 359.16 134.36 367.13 135.06 375.32 136.65 383.72 139.07" stroke-dasharray="3 3" transform="rotate(12.12, 400, 400)" opacity="0.85"></path><path d="M386.67 149.86C394.76 152.53 402.88 155.77 411.01 159.47 419.16 163.16 427.33 167.14 435.51 171.3 443.73 175.22 451.97 179.19 460.23 183.14 468.53 186.71 476.86 190.22 485.21 193.64 493.62 196.64 502.05 199.58 510.49 202.47 518.98 205 527.49 207.55 535.96 210.18 544.48 212.55 552.96 215.08 561.34 217.82 569.73 220.43 578 223.33 586.07 226.55 594.07 229.75 601.82 233.34 609.24 237.31 616.5 241.34 623.35 245.79 629.7 250.64 635.77 255.6 641.26 260.95 646.09 266.69 650.53 272.53 654.22 278.72 657.12 285.24 659.56 291.84 661.15 298.73 661.86 305.86 662.11 313.06 661.49 320.47 660 328.05 658.15 335.66 655.51 343.42 652.13 351.3 648.54 359.18 644.36 367.15 639.66 375.19 634.99 383.24 630.09 391.16 625.06 398.94 620.29 406.72 615.53 414.39 610.83 421.94 606.56 429.52 602.43 437.01 598.46 444.43 594.98 451.93 591.66 459.4 588.49 466.87 585.78 474.48 583.18 482.14 580.64 489.89 578.47 497.82 576.27 505.89 574.02 514.11 572.02 522.55 569.86 531.16 567.51 539.93 565.28 548.91 562.78 558.01 559.96 567.19 557.19 576.48 554.04 585.73 550.5 594.86 546.94 603.89 542.96 612.61 538.56 620.88 534.09 628.77 529.2 636 523.88 642.39 518.5 648.11 512.7 652.8 506.52 656.34 500.28 659.01 493.66 660.42 486.69 660.54 479.68 659.81 472.35 657.85 464.71 654.73 457.05 651.06 449.11 646.5 440.91 641.22 432.7 635.92 424.25 630.3 415.59 624.6 406.92 619.49 398.26 614.79 389.62 610.64 380.98 607.48 372.38 605.01 363.84 603.23 355.3 602.48 346.83 602.33 338.44 602.67 330.06 603.8 321.77 605.17 313.6 606.62 305.43 608.47 297.39 610.11 289.49 611.39 281.61 612.67 273.89 613.36 266.35 613.36 258.85 613.07 251.55 611.96 244.48 610.02 237.46 607.64 230.69 604.41 224.19 600.36 217.78 595.86 211.67 590.61 205.89 584.69 200.21 578.4 194.89 571.53 189.95 564.18 185.13 556.57 180.71 548.59 176.72 540.31 172.87 531.89 169.45 523.26 166.5 514.5 163.68 505.67 161.33 496.77 159.45 487.85 157.7 478.92 156.43 469.99 155.64 461.13 154.96 452.26 154.74 443.47 155.01 434.77 155.34 426.08 156.12 417.49 157.37 409.02 158.63 400.56 160.29 392.4 162.31 384.56 164.3 376.71 166.62 369.16 169.25 361.89 171.8 354.6 174.64 347.58 177.74 340.83 180.72 334.01 183.96 327.43 187.42 321.07 190.74 314.62 194.29 308.35 198.05 302.24 201.67 295.99 205.5 289.86 209.54 283.82 213.44 277.59 217.55 271.42 221.87 265.28 226.08 258.91 230.5 252.54 235.14 246.17 239.69 239.57 244.47 232.95 249.48 226.35 254.42 219.56 259.6 212.8 265.02 206.15 270.39 199.39 276.01 192.82 281.88 186.48 287.71 180.21 293.79 174.31 300.11 168.86 306.41 163.65 312.95 159.03 319.74 155.08 326.5 151.53 333.5 148.76 340.73 146.82 347.95 145.38 355.39 144.8 363.05 145.11 370.7 145.88 378.58 147.47 386.66 149.86" stroke-dasharray="2 2" transform="rotate(16.16, 400, 400)" opacity="0.49"></path><path d="M390.03 160.65C397.81 163.26 405.63 166.41 413.48 170 421.35 173.61 429.25 177.5 437.17 181.58 445.11 185.46 453.09 189.41 461.09 193.37 469.12 196.98 477.18 200.55 485.26 204.06 493.37 207.18 501.51 210.24 509.63 213.26 517.79 215.92 525.94 218.59 534.04 221.31 542.16 223.77 550.22 226.34 558.15 229.08 566.07 231.65 573.83 234.47 581.38 237.55 588.84 240.57 596.02 243.92 602.87 247.6 609.54 251.3 615.8 255.37 621.58 259.8 627.08 264.3 632.02 269.17 636.32 274.39 640.28 279.69 643.53 285.33 646.04 291.29 648.14 297.31 649.46 303.62 649.97 310.2 650.07 316.82 649.39 323.68 647.91 330.74 646.11 337.82 643.6 345.08 640.4 352.49 637.04 359.92 633.11 367.47 628.7 375.15 624.32 382.83 619.7 390.44 614.93 397.98 610.4 405.52 605.84 413.01 601.32 420.44 597.16 427.9 593.1 435.33 589.16 442.74 585.65 450.22 582.26 457.72 579 465.26 576.15 472.92 573.38 480.65 570.68 488.48 568.31 496.47 565.93 504.58 563.5 512.81 561.32 521.22 559.01 529.75 556.53 538.39 554.2 547.16 551.64 555.99 548.81 564.82 546.04 573.67 542.95 582.41 539.52 590.94 536.09 599.31 532.29 607.3 528.11 614.79 523.9 621.88 519.29 628.29 514.3 633.86 509.27 638.8 503.85 642.76 498.06 645.63 492.23 647.72 486.04 648.67 479.51 648.44 472.95 647.47 466.07 645.41 458.9 642.31 451.7 638.76 444.22 634.41 436.48 629.43 428.74 624.45 420.75 619.18 412.53 613.81 404.32 608.97 396.09 604.48 387.87 600.46 379.66 597.32 371.47 594.77 363.32 592.82 355.18 591.8 347.09 591.31 339.08 591.28 331.08 591.99 323.16 592.94 315.35 594.01 307.56 595.5 299.88 596.86 292.34 597.95 284.83 599.12 277.47 599.82 270.29 599.95 263.16 599.89 256.22 599.14 249.5 597.66 242.84 595.84 236.43 593.25 230.28 589.92 224.22 586.21 218.45 581.8 213 576.73 207.66 571.34 202.65 565.36 198.01 558.89 193.49 552.17 189.36 545.05 185.63 537.59 182.04 529.97 178.86 522.1 176.12 514.04 173.51 505.91 171.35 497.64 169.64 489.31 168.05 480.94 166.91 472.54 166.24 464.15 165.66 455.75 165.53 447.39 165.86 439.08 166.24 430.78 167.07 422.54 168.33 414.4 169.6 406.25 171.26 398.38 173.27 390.79 175.24 383.18 177.54 375.83 180.13 368.74 182.64 361.62 185.43 354.73 188.47 348.07 191.4 341.35 194.57 334.82 197.96 328.48 201.23 322.04 204.7 315.74 208.38 309.58 211.93 303.28 215.68 297.07 219.62 290.93 223.43 284.62 227.45 278.34 231.66 272.1 235.75 265.65 240.06 259.21 244.56 252.78 248.97 246.15 253.6 239.54 258.44 232.97 263.21 226.25 268.21 219.61 273.42 213.1 278.59 206.55 283.98 200.2 289.61 194.13 295.19 188.15 301.02 182.56 307.07 177.43 313.09 172.56 319.35 168.27 325.84 164.64 332.31 161.39 339.01 158.89 345.93 157.17 352.84 155.92 359.97 155.49 367.32 155.89 374.67 156.71 382.23 158.3 390.02 160.65" stroke-dasharray="3 2" transform="rotate(20.200000000000003, 400, 400)" opacity="0.20"></path><path d="M393.68 171.44C401.16 173.98 408.69 177.04 416.25 180.52 423.81 184.03 431.42 187.82 439.06 191.81 446.71 195.63 454.4 199.54 462.11 203.48 469.84 207.12 477.6 210.74 485.35 214.32 493.14 217.53 500.93 220.71 508.7 223.85 516.49 226.64 524.24 229.44 531.93 232.27 539.62 234.82 547.21 237.47 554.66 240.24 562.08 242.84 569.32 245.62 576.33 248.62 583.23 251.52 589.86 254.7 596.13 258.17 602.23 261.62 607.92 265.39 613.13 269.49 618.09 273.61 622.51 278.07 626.33 282.86 631.25 290.27 637.16 306.72 638.03 315.7 638.01 321.8 637.28 328.15 635.82 334.72 634.09 341.31 631.7 348.11 628.7 355.1 625.54 362.09 621.87 369.26 617.74 376.58 613.63 383.91 609.29 391.23 604.8 398.53 600.5 405.83 596.15 413.13 591.81 420.42 587.78 427.74 583.81 435.08 579.92 442.43 576.41 449.86 572.99 457.33 569.66 464.86 566.7 472.49 563.81 480.21 560.96 488.01 558.43 495.94 555.88 503.98 553.3 512.11 550.95 520.36 548.5 528.69 545.91 537.06 543.47 545.51 540.83 553.94 537.97 562.3 535.18 570.62 532.12 578.76 528.77 586.62 525.44 594.27 521.78 601.51 517.79 608.21 513.78 614.5 509.42 620.1 504.72 624.89 497.44 630.73 481.1 636.48 472.09 636.22 465.95 635.07 459.5 632.94 452.76 629.9 446 626.47 438.97 622.35 431.69 617.66 424.39 612.99 416.86 608.06 409.1 603.02 401.34 598.46 393.55 594.18 385.76 590.29 377.98 587.18 370.21 584.57 362.47 582.48 354.74 581.23 347.06 580.45 339.44 580.07 331.84 580.38 324.32 580.94 316.89 581.64 309.49 582.76 302.2 583.81 295.04 584.67 287.92 585.68 280.95 586.3 274.14 586.48 267.39 586.55 260.83 586.04 254.48 584.91 248.2 583.52 242.16 581.47 236.37 578.75 230.67 575.72 225.25 572.04 220.14 567.75 215.14 563.17 210.45 558.02 206.12 552.39 201.91 546.52 198.06 540.23 194.6 533.57 191.26 526.76 188.32 519.66 185.8 512.33 183.4 504.91 181.42 497.32 179.88 489.6 178.44 481.85 177.43 474.01 176.87 466.14 176.39 458.25 176.34 450.35 176.72 442.47 177.16 434.58 178.02 426.72 179.29 418.92 180.58 411.1 182.23 403.52 184.21 396.17 186.16 388.81 188.42 381.67 190.96 374.74 193.43 367.78 196.17 361.02 199.14 354.44 202.02 347.8 205.12 341.32 208.44 334.98 211.64 328.56 215.04 322.25 218.64 316.04 222.11 309.7 225.78 303.43 229.63 297.22 233.36 290.86 237.28 284.52 241.38 278.21 245.37 271.74 249.56 265.28 253.94 258.85 258.22 252.26 262.71 245.71 267.4 239.23 272.01 232.66 276.83 226.19 281.86 219.88 286.83 213.57 292.02 207.5 297.42 201.72 302.79 196.08 308.37 190.82 314.17 186.04 319.94 181.52 325.94 177.57 332.15 174.25 338.34 171.3 344.76 169.06 351.39 167.57 358 166.5 364.84 166.2 371.89 166.68 378.93 167.55 386.19 169.14 393.67 171.44" stroke-dasharray="2 2" transform="rotate(24.24, 400, 400)" opacity="0.34"></path><path d="M397.53 182.23C404.7 184.7 411.92 187.66 419.17 191.02 426.43 194.42 433.74 198.1 441.06 201.98 448.4 205.73 455.77 209.58 463.16 213.49 470.56 217.13 477.97 220.78 485.38 224.4 492.81 227.71 500.22 230.98 507.59 234.22 514.97 237.14 522.3 240.07 529.54 243.01 536.76 245.68 543.87 248.42 550.82 251.26 557.72 253.9 564.42 256.69 570.88 259.66 577.24 262.52 583.3 265.59 589.01 268.92 594.55 272.19 599.68 275.74 604.36 279.57 610.77 285.46 620.41 298.78 623.48 306.21 625.43 313.95 625.55 330.84 623.74 339.93 622.08 346.07 619.83 352.45 617.01 359.03 614.06 365.62 610.64 372.42 606.77 379.41 602.94 386.4 598.87 393.43 594.65 400.47 590.59 407.53 586.45 414.63 582.29 421.75 578.41 428.9 574.54 436.1 570.74 443.35 567.25 450.65 563.82 458.02 560.47 465.46 557.43 472.97 554.44 480.57 551.48 488.25 548.81 496.02 546.13 503.86 543.41 511.76 540.92 519.74 538.33 527.74 535.64 535.74 533.09 543.74 530.38 551.68 527.48 559.48 524.66 567.19 521.61 574.66 518.32 581.81 515.05 588.72 511.5 595.18 507.66 601.09 501.75 609.01 488.34 620.31 480.84 623.36 472.99 624.58 455.75 621.52 446.41 617.48 440.08 614.2 433.48 610.31 426.63 605.91 419.78 601.56 412.69 596.95 405.38 592.23 398.08 587.94 390.73 583.87 383.38 580.13 376.04 577.07 368.7 574.43 361.39 572.23 354.09 570.77 346.82 569.73 339.62 569.04 332.44 568.99 325.32 569.17 318.3 569.5 311.31 570.26 304.42 570.98 297.67 571.59 290.95 572.38 284.37 572.88 277.97 573.02 271.61 573.13 265.44 572.76 259.48 571.87 253.59 570.81 247.92 569.17 242.5 566.94 237.17 564.48 232.11 561.42 227.35 557.81 222.68 553.95 218.32 549.56 214.3 544.69 210.39 539.61 206.83 534.11 203.63 528.23 200.56 522.2 197.85 515.85 195.55 509.25 193.35 502.55 191.55 495.63 190.17 488.56 188.88 481.44 188 474.19 187.54 466.86 187.15 459.51 187.17 452.1 187.61 444.66 188.09 437.22 188.97 429.76 190.25 422.31 191.54 414.85 193.18 407.57 195.13 400.48 197.05 393.37 199.27 386.44 201.76 379.68 204.18 372.89 206.86 366.25 209.76 359.76 212.58 353.21 215.61 346.79 218.85 340.47 221.98 334.08 225.31 327.78 228.82 321.55 232.22 315.21 235.81 308.92 239.56 302.68 243.21 296.31 247.03 289.97 251.03 283.65 254.93 277.21 259 270.79 263.26 264.42 267.42 257.94 271.78 251.52 276.31 245.19 280.78 238.82 285.44 232.58 290.29 226.52 295.08 220.51 300.08 214.75 305.28 209.31 310.43 204.01 315.8 199.12 321.36 194.69 326.89 190.53 332.64 186.92 338.59 183.92 344.52 181.27 350.66 179.28 357.01 178 363.34 177.12 369.89 176.94 376.64 177.5 383.39 178.4 390.35 179.99 397.52 182.23" stroke-dasharray="10 1" transform="rotate(28.28, 400, 400)" opacity="0.72"></path><path d="M401.45 193.02C408.31 195.41 415.21 198.26 422.15 201.5 429.09 204.78 436.06 208.34 443.06 212.11 450.06 215.76 457.09 219.54 464.12 223.39 471.17 227.02 478.21 230.67 485.23 234.32 492.27 237.68 499.27 241.03 506.22 244.36 513.16 247.4 520.03 250.43 526.79 253.48 533.53 256.28 540.14 259.12 546.57 262.04 552.95 264.76 559.11 267.6 565.02 270.57 570.83 273.42 576.34 276.45 581.5 279.69 588.8 284.54 600.97 295.43 605.65 301.52 609.41 307.88 613.63 321.97 614.03 329.69 613.84 334.93 613.05 340.43 611.67 346.18 610.09 351.92 607.97 357.91 605.33 364.13 602.59 370.34 599.41 376.79 595.81 383.45 592.25 390.12 588.45 396.85 584.48 403.64 580.66 410.44 576.74 417.3 572.78 424.21 569.05 431.16 565.31 438.17 561.6 445.24 558.16 452.35 554.76 459.54 551.4 466.8 548.32 474.11 545.27 481.5 542.24 488.94 539.46 496.43 536.67 503.98 533.85 511.54 531.23 519.13 528.53 526.7 525.75 534.22 523.1 541.7 520.32 549.06 517.38 556.23 514.53 563.27 511.48 570.03 508.22 576.44 505 582.59 501.54 588.27 497.83 593.41 492.14 600.21 479.39 609.55 472.3 611.84 464.91 612.51 448.74 609.01 439.98 605.06 434.05 601.95 427.86 598.3 421.44 594.19 415.02 590.14 408.37 585.85 401.51 581.44 394.65 577.41 387.75 573.56 380.84 569.97 373.94 566.98 367.04 564.33 360.16 562.05 353.29 560.43 346.46 559.15 339.68 558.2 332.93 557.82 326.24 557.65 319.64 557.63 313.07 558.03 306.6 558.43 300.26 558.75 293.96 559.29 287.8 559.61 281.8 559.66 272.97 559.58 256.38 557.17 248.7 554.65 241.4 551.37 228.29 541.94 222.57 535.88 218.96 531.52 215.68 526.73 212.75 521.57 209.92 516.28 207.45 510.66 205.36 504.75 203.36 498.75 201.74 492.51 200.51 486.07 199.37 479.59 198.61 472.93 198.24 466.16 197.95 459.36 198.04 452.46 198.52 445.48 199.04 438.5 199.94 431.46 201.21 424.37 202.5 417.29 204.11 410.33 206.03 403.5 207.91 396.67 210.08 389.96 212.51 383.38 214.87 376.78 217.48 370.28 220.31 363.9 223.06 357.47 226.03 351.13 229.18 344.87 232.24 338.54 235.49 332.28 238.91 326.07 242.23 319.77 245.72 313.52 249.38 307.3 252.94 300.98 256.67 294.7 260.56 288.44 264.36 282.1 268.33 275.8 272.46 269.55 276.51 263.24 280.74 257.02 285.13 250.91 289.46 244.79 293.97 238.83 298.65 233.08 303.28 227.39 308.1 221.98 313.1 216.9 318.05 211.98 323.21 207.47 328.55 203.41 333.86 199.61 339.36 196.34 345.06 193.65 350.74 191.3 356.62 189.56 362.69 188.49 368.75 187.77 375.01 187.71 381.47 188.33 387.93 189.27 394.58 190.84 401.44 193.02" stroke-dasharray="8 0" transform="rotate(32.32, 400, 400)" opacity="0.42"></path><path d="M405.33 203.81C411.87 206.11 418.44 208.86 425.04 211.96 431.65 215.11 438.28 218.54 444.92 222.18 451.57 225.73 458.23 229.41 464.88 233.19 471.54 236.77 478.19 240.41 484.8 244.05 491.42 247.45 497.99 250.85 504.48 254.24 510.97 257.38 517.36 260.52 523.63 263.66 529.87 266.57 535.97 269.52 541.88 272.53 547.72 275.34 553.35 278.24 558.72 281.26 566.47 285.65 580.14 295.11 585.88 300.28 590.91 305.58 598.25 317.35 600.45 323.84 601.77 330.56 601.34 345.28 599.61 353.25 598.12 358.65 596.14 364.29 593.68 370.16 591.14 376.03 588.19 382.14 584.85 388.48 581.54 394.83 578 401.26 574.3 407.77 570.71 414.28 567.02 420.88 563.26 427.54 559.7 434.23 556.1 440.99 552.5 447.82 549.14 454.68 545.79 461.61 542.46 468.59 539.37 475.61 536.29 482.69 533.21 489.79 530.36 496.92 527.49 504.06 524.59 511.18 521.87 518.3 519.09 525.35 516.23 532.31 513.51 539.19 510.66 545.91 507.69 552.4 504.8 558.74 501.75 564.77 498.52 570.43 493.64 578.29 482.84 590.89 476.87 595.34 470.66 598.45 456.99 600.28 449.52 599 444.45 597.54 439.14 595.41 433.59 592.66 428.03 589.72 422.24 586.31 416.24 582.49 410.22 578.73 404 574.75 397.58 570.65 391.17 566.88 384.71 563.25 378.25 559.82 371.79 556.91 365.33 554.27 358.89 551.94 352.47 550.19 346.07 548.72 339.73 547.53 333.42 546.85 327.16 546.37 321 546.03 314.86 546.08 308.82 546.15 302.91 546.19 294.16 546.52 277.5 546.28 269.66 545.44 262.11 544.14 248.26 539.26 242.02 535.6 236.19 531.28 226.13 520.27 221.96 513.69 218.26 506.59 212.73 490.72 210.92 482.1 209.91 476.24 209.27 470.17 208.99 463.95 208.78 457.7 208.93 451.31 209.45 444.81 210 438.3 210.91 431.69 212.17 424.99 213.45 418.29 215.03 411.67 216.9 405.14 218.75 398.6 220.86 392.14 223.21 385.76 225.52 379.37 228.06 373.05 230.8 366.81 233.48 360.53 236.36 354.31 239.42 348.14 242.4 341.93 245.56 335.76 248.89 329.63 252.13 323.43 255.53 317.27 259.09 311.14 262.56 304.94 266.19 298.78 269.98 292.66 273.67 286.48 277.53 280.36 281.54 274.31 285.48 268.24 289.57 262.27 293.83 256.43 298.02 250.62 302.38 244.99 306.9 239.59 311.37 234.28 316.01 229.24 320.82 224.55 325.59 220.02 330.54 215.89 335.66 212.21 340.75 208.78 346.03 205.85 351.49 203.47 356.92 201.39 362.54 199.9 368.34 199.02 374.13 198.46 380.11 198.51 386.28 199.19 392.43 200.15 398.78 201.69 405.32 203.81" stroke-dasharray="6 2" transform="rotate(36.36, 400, 400)" opacity="0.66"></path><path d="M409.05 214.6C415.25 216.81 421.49 219.44 427.74 222.4 433.99 225.42 440.26 228.7 446.53 232.19 459.09 238.95 471.64 246.18 484 253.6 496.34 260.2 508.43 266.85 520.01 273.51 531.43 279.32 542.19 285.33 551.98 291.61 561.36 297.33 569.53 303.62 576.2 310.55 582.18 317.22 586.45 324.74 588.79 333.13 590.34 341.43 589.95 350.69 587.57 360.88 586.17 365.96 584.32 371.28 582.04 376.84 579.7 382.39 576.97 388.18 573.89 394.2 570.83 400.22 567.55 406.34 564.1 412.54 560.75 418.75 557.28 425.05 553.73 431.41 547.14 444.19 540.38 457.28 533.63 470.53 527.7 483.83 521.71 497.24 515.64 510.47 510.24 523.55 504.53 536.17 498.43 547.9 492.7 558.96 486.33 568.6 479.27 576.31 472.33 582.72 464.55 586.75 455.92 588.09 447.28 587.97 437.74 585.31 427.36 580.27 422.15 577.52 416.74 574.34 411.14 570.81 405.52 567.34 399.72 563.66 393.74 559.86 387.75 556.35 381.73 552.93 375.71 549.67 369.69 546.86 363.68 544.26 357.68 541.91 345.73 538.7 333.92 536.37 322.44 534.7 311.07 534.5 300.11 534.25 289.74 533.54 279.57 533.28 270.07 531.9 261.45 529.17 253.1 526.19 245.7 521.61 239.42 515.47 233.47 508.93 228.69 500.92 225.22 491.67 222.08 482.15 220.23 471.6 219.79 460.24 219.65 454.54 219.85 448.65 220.4 442.62 220.97 436.59 221.89 430.41 223.13 424.12 224.39 417.82 225.94 411.56 227.76 405.34 229.55 399.12 231.6 392.93 233.88 386.8 238.3 374.5 243.59 362.32 249.58 350.34 255.29 338.21 261.68 326.16 268.66 314.27 275.33 302.22 282.62 290.32 290.45 278.78 298.02 267.24 306.2 256.24 314.97 246.11 323.54 236.41 332.77 227.95 342.62 221.11 352.35 215.22 362.78 211.29 373.86 209.6 379.38 209.18 385.07 209.34 390.94 210.06 396.79 211.04 402.83 212.55 409.04 214.6" stroke-dasharray="7 11" transform="rotate(40.400000000000006, 400, 400)" opacity="0.54"></path><path d="M412.49 225.39C424.22 229.74 436.03 235.47 447.78 242.16 459.56 248.67 471.26 255.7 482.73 262.97 494.17 269.56 505.29 276.27 515.87 283.01 526.28 289 536 295.16 544.77 301.55 553.17 307.4 560.4 313.71 566.23 320.55 571.46 327.1 575.13 334.38 577.04 342.42 578.3 350.33 577.81 359.12 575.54 368.76 572.84 378.36 568.59 388.86 562.93 400.26 557.34 411.65 550.98 423.44 544.19 435.48 537.94 447.55 531.46 459.88 524.9 472.29 519.04 484.69 513.06 497.08 506.98 509.17 501.49 521.04 495.72 532.33 489.61 542.64 483.85 552.28 477.55 560.5 470.67 566.9 463.93 572.14 456.45 575.22 448.26 575.91 440.08 575.41 431.1 572.69 421.4 567.91 411.67 562.73 401.2 556.29 390.08 549.07 378.95 542.86 367.75 537.04 356.63 531.93 345.57 528.52 334.65 525.81 324.05 523.66 313.57 522.85 303.48 522.04 293.96 520.92 284.62 520.33 275.93 518.85 268.06 516.28 260.44 513.63 253.71 509.61 248.04 504.23 242.66 498.57 238.36 491.56 235.29 483.35 232.49 474.94 230.91 465.47 230.62 455.14 230.52 444.73 231.66 433.58 234.1 421.82 236.56 410.05 240.08 398.26 244.5 386.55 248.78 374.82 253.87 363.12 259.64 351.54 265.17 339.87 271.36 328.26 278.09 316.81 284.56 305.29 291.61 293.97 299.17 283.05 306.5 272.24 314.4 262.02 322.83 252.69 331.08 243.84 339.94 236.21 349.35 230.13 358.66 224.93 368.6 221.56 379.13 220.23 389.62 219.92 400.75 221.64 412.48 225.39" stroke-dasharray="8 3" transform="rotate(44.44, 400, 400)" opacity="0.66"></path><path d="M415.55 236.18C426.57 240.32 437.63 245.74 448.58 252.08 459.54 258.31 470.38 265.09 480.94 272.16 491.45 278.68 501.6 285.36 511.19 292.12 520.61 298.24 529.33 304.52 537.12 310.99 544.58 316.96 550.94 323.31 555.99 330.09 560.55 336.58 563.67 343.68 565.22 351.43 566.23 359.04 565.68 367.42 563.54 376.56 561.04 385.65 557.16 395.57 551.97 406.3 546.84 417.03 540.97 428.11 534.64 439.37 528.76 450.66 522.58 462.12 516.26 473.57 510.52 484.97 504.63 496.24 498.61 507.11 493.09 517.71 487.31 527.64 481.24 536.56 475.49 544.83 469.28 551.74 462.58 556.93 456.03 561.14 448.86 563.4 441.07 563.56 433.32 562.78 424.89 560.06 415.82 555.56 406.74 550.8 397.01 544.91 386.72 538.28 376.42 532.52 366.08 527.01 355.84 522.02 345.65 518.46 335.62 515.45 325.91 512.9 316.3 511.54 307.07 510.22 298.4 508.68 289.88 507.71 281.99 506.05 274.87 503.52 267.96 501.03 261.9 497.4 256.81 492.59 251.97 487.61 248.14 481.43 245.44 474.12 242.98 466.67 241.64 458.18 241.5 448.81 241.52 439.37 242.69 429.14 245.06 418.21 247.45 407.29 250.85 396.22 255.08 385.15 259.19 374.07 264.08 362.95 269.61 351.89 274.94 340.8 280.89 329.76 287.36 318.9 293.61 308.03 300.4 297.41 307.67 287.23 314.74 277.23 322.34 267.86 330.42 259.39 338.34 251.41 346.81 244.61 355.79 239.28 364.67 234.75 374.11 231.9 384.08 230.92 394.02 230.83 404.52 232.58 415.55 236.18" stroke-dasharray="1 10" transform="rotate(48.48, 400, 400)" opacity="0.14"></path><path d="M418.14 246.97C428.43 250.88 438.71 255.99 448.84 261.96 458.96 267.88 468.92 274.36 478.56 281.17 488.14 287.56 497.33 294.15 505.94 300.86 514.39 307.03 522.16 313.37 529.03 319.88 535.61 325.94 541.16 332.31 545.51 339.04 549.45 345.49 552.1 352.44 553.34 359.94 554.14 367.29 553.55 375.3 551.55 383.96 549.27 392.58 545.73 401.92 541.01 411.96 536.33 422.01 530.94 432.32 525.08 442.75 519.57 453.18 513.73 463.7 507.7 474.1 502.15 484.43 496.39 494.52 490.5 504.12 485.02 513.44 479.3 522.04 473.31 529.62 467.62 536.61 461.53 542.31 455.03 546.43 448.68 549.73 441.81 551.32 434.43 551.07 427.08 550.08 419.17 547.43 410.72 543.25 402.26 538.9 393.25 533.54 383.76 527.49 374.28 522.18 364.78 516.99 355.41 512.16 346.08 508.53 336.92 505.3 328.09 502.42 319.34 500.6 310.96 498.8 303.12 496.86 295.41 495.5 288.29 493.6 281.9 491 275.69 488.55 270.26 485.16 265.74 480.77 261.42 476.3 258.04 470.78 255.7 464.24 253.55 457.59 252.43 449.98 252.42 441.49 252.54 432.95 253.72 423.6 256.02 413.53 258.34 403.46 261.58 393.17 265.61 382.8 269.54 372.44 274.21 361.99 279.48 351.59 284.58 341.19 290.27 330.84 296.46 320.69 302.46 310.59 308.97 300.77 315.93 291.43 322.72 282.31 329.99 273.84 337.7 266.26 345.27 259.17 353.34 253.19 361.86 248.58 370.29 244.69 379.23 242.33 388.62 241.67 397.98 241.77 407.84 243.53 418.14 246.97" stroke-dasharray="1 4" transform="rotate(52.52, 400, 400)" opacity="0.71"></path><path d="M420.17 257.76C429.72 261.43 439.2 266.2 448.49 271.79 457.77 277.36 466.84 283.5 475.55 290.01 484.22 296.19 492.46 302.62 500.13 309.2 507.65 315.34 514.51 321.67 520.52 328.14 526.28 334.24 531.09 340.6 534.82 347.25 538.2 353.65 540.43 360.46 541.41 367.7 542.04 374.81 541.44 382.47 539.59 390.66 537.52 398.82 534.32 407.57 530.05 416.92 525.81 426.26 520.89 435.77 515.5 445.31 510.39 454.83 504.91 464.34 499.21 473.65 493.89 482.87 488.34 491.76 482.63 500.1 477.27 508.17 471.66 515.49 465.82 521.82 460.23 527.64 454.31 532.25 448.04 535.44 441.91 537.98 435.35 539.01 428.37 538.46 421.43 537.35 414.02 534.81 406.17 530.96 398.32 527.03 390.01 522.19 381.3 516.7 372.6 511.84 363.92 506.98 355.4 502.35 346.91 498.72 338.61 495.34 330.64 492.23 322.73 490.01 315.19 487.82 308.16 485.52 301.24 483.77 294.87 481.6 289.18 478.89 281.23 474.74 269.54 462.4 266.05 453.99 264.2 448.02 263.29 441.16 263.38 433.48 263.59 425.77 264.77 417.26 266.98 408.04 269.21 398.82 272.29 389.34 276.1 379.75 279.83 370.17 284.25 360.49 289.24 350.85 294.1 341.24 299.51 331.69 305.39 322.36 311.11 313.12 317.31 304.19 323.93 295.76 330.4 287.57 337.32 280.02 344.63 273.35 351.83 267.13 359.47 261.96 367.5 258.04 375.47 254.76 383.87 252.86 392.66 252.48 401.43 252.74 410.62 254.5 420.17 257.76" stroke-dasharray="6 7" transform="rotate(56.56, 400, 400)" opacity="0.97"></path><path d="M421.59 268.55C430.38 271.97 439.04 276.39 447.48 281.58 455.91 286.78 464.09 292.54 471.9 298.68 479.66 304.59 486.99 310.78 493.76 317.15 500.39 323.18 506.39 329.4 511.61 335.77 516.61 341.83 520.75 348.12 523.92 354.63 526.81 360.93 528.68 367.57 529.44 374.54 529.93 381.41 529.35 388.7 527.65 396.41 525.79 404.09 522.93 412.25 519.09 420.87 515.28 429.48 510.82 438.15 505.9 446.76 501.2 455.35 496.12 463.83 490.78 472.03 485.74 480.13 480.46 487.84 474.99 494.97 469.8 501.85 464.38 507.98 458.75 513.17 453.32 517.93 447.6 521.6 441.61 524.01 435.73 525.91 429.5 526.51 422.93 525.75 416.41 524.59 409.5 522.21 402.24 518.71 394.98 515.18 387.35 510.86 379.41 505.91 371.47 501.48 363.6 496.99 355.91 492.6 348.23 489.01 340.77 485.58 333.62 482.31 326.53 479.79 319.8 477.27 313.55 474.67 304.57 471.35 289.71 463.05 284.12 457.53 279.5 451.37 274.57 435.16 274.39 425.12 274.67 418.15 275.84 410.45 277.94 402.07 280.06 393.69 282.97 385.05 286.54 376.3 290.06 367.56 294.22 358.72 298.9 349.93 303.48 341.18 308.59 332.52 314.13 324.09 319.54 315.79 325.4 307.8 331.64 300.32 337.77 293.09 344.3 286.49 351.19 280.71 357.98 275.34 365.17 270.94 372.69 267.69 380.16 264.97 388 263.48 396.17 263.35 404.31 263.75 412.81 265.48 421.59 268.55" stroke-dasharray="10 5" transform="rotate(60.599999999999994, 400, 400)" opacity="0.95"></path><path d="M422.36 279.34C430.36 282.5 438.2 286.56 445.79 291.32 453.37 296.12 460.68 301.47 467.6 307.2 474.48 312.77 480.93 318.64 486.84 324.71 492.65 330.54 497.85 336.57 502.33 342.73 506.64 348.66 510.18 354.8 512.85 361.11 515.3 367.25 516.86 373.66 517.44 380.32 517.83 386.89 517.27 393.79 515.74 401 514.09 408.18 511.54 415.72 508.12 423.58 504.73 431.44 500.73 439.26 496.28 446.93 491.99 454.58 487.33 462.02 482.39 469.14 477.68 476.15 472.71 482.73 467.55 488.72 462.6 494.49 457.43 499.54 452.06 503.72 446.87 507.57 441.42 510.43 435.73 512.2 430.15 513.58 424.28 513.85 418.14 512.98 412.05 511.83 405.65 509.65 398.97 506.5 392.3 503.38 385.34 499.54 378.15 495.12 370.95 491.13 363.86 487 356.96 482.88 350.09 479.41 343.43 475.99 337.09 472.65 330.78 469.93 324.83 467.17 319.33 464.34 311.42 460.62 298.43 451.95 293.58 446.56 289.59 440.72 285.47 425.84 285.45 416.76 285.78 410.47 286.92 403.53 288.9 395.98 290.9 388.43 293.61 380.65 296.94 372.76 300.22 364.9 304.1 356.96 308.46 349.08 312.74 341.26 317.51 333.54 322.67 326.08 327.75 318.74 333.24 311.74 339.07 305.23 344.81 298.96 350.92 293.28 357.34 288.38 363.69 283.83 370.39 280.16 377.36 277.51 384.3 275.31 391.56 274.2 399.07 274.28 406.58 274.79 414.36 276.47 422.36 279.34" stroke-dasharray="5 0" transform="rotate(64.64, 400, 400)" opacity="0.09"></path><path d="M422.45 290.13C429.65 293.02 436.66 296.71 443.41 301.03 450.14 305.41 456.59 310.3 462.66 315.57 468.69 320.74 474.31 326.23 479.41 331.92 484.43 337.45 488.9 343.18 492.71 349.05 496.4 354.75 499.4 360.63 501.63 366.66 503.7 372.55 504.99 378.66 505.44 384.94 505.74 391.15 505.22 397.6 503.86 404.27 502.41 410.91 500.18 417.8 497.16 424.89 494.16 431.98 490.61 438.93 486.63 445.66 482.78 452.37 478.54 458.82 474.03 464.89 469.69 470.87 465.09 476.4 460.28 481.35 455.64 486.12 450.78 490.22 445.74 493.53 438.27 497.69 422.41 501.06 414 500.17 408.36 499.07 402.47 497.11 396.39 494.34 390.31 491.6 384.01 488.24 377.54 484.33 371.08 480.77 364.75 477.02 358.63 473.21 352.52 469.9 346.64 466.57 341.06 463.25 332.91 458.97 318.62 450.52 312.69 446.03 307.39 441.55 299.84 430.68 297.74 424.07 296.44 416.95 297.47 399.97 299.86 390.13 301.72 383.39 304.23 376.47 307.29 369.48 310.33 362.52 313.89 355.51 317.91 348.58 321.86 341.71 326.26 334.97 331.03 328.5 335.73 322.14 340.81 316.13 346.2 310.58 351.52 305.25 357.17 300.47 363.09 296.4 368.96 292.62 375.12 289.63 381.52 287.54 387.9 285.81 394.53 285.03 401.37 285.27 408.2 285.87 415.25 287.48 422.45 290.13" stroke-dasharray="11 3" transform="rotate(68.68, 400, 400)" opacity="0.55"></path><path d="M421.85 300.91C434.63 306.29 446.58 314.27 457.12 323.81 467.51 333.17 476.28 343.69 482.81 354.75 488.94 365.34 492.63 376.65 493.43 388.36 493.82 399.87 491.44 412.11 486.2 424.71 481.02 437.31 473.93 449.06 465.7 459.32 457.97 469.31 449.16 477.35 439.75 482.7 430.76 487.34 420.9 488.98 410.48 487.34 400.2 485.29 389.13 480.56 377.63 473.54 366.12 467.58 355.27 460.88 345.57 454.08 335.95 448.77 327.62 442.95 321.12 436.52 314.82 430.86 310.48 423.83 308.52 415.32 306.79 406.95 307.45 396.74 310.82 384.86 314.24 372.99 319.93 360.64 327.25 348.66 334.41 336.9 343.18 325.85 353.03 316.46 362.7 307.76 373.55 301.25 385.15 297.77 396.67 295.41 409.06 296.34 421.85 300.91" stroke-dasharray="4 8" transform="rotate(72.72, 400, 400)" opacity="0.53"></path><path d="M420.59 311.7C431.74 316.47 442.03 323.5 451 331.94 459.86 340.33 467.23 349.84 472.65 359.87 477.78 369.63 480.82 380.01 481.43 390.62 481.75 401.11 479.73 412.06 475.24 423.06 470.8 434.06 464.62 444.04 457.38 452.5 450.47 460.77 442.55 467.21 434.05 471.32 425.86 474.95 416.92 476.09 407.56 474.53 398.31 472.77 388.47 468.76 378.39 462.76 368.3 457.54 358.91 451.48 350.61 445.14 342.36 439.9 335.3 434.11 329.85 427.81 324.55 422.14 320.94 415.4 319.41 407.58 318.03 399.9 318.72 390.82 321.78 380.5 324.88 370.17 329.96 359.64 336.49 349.56 342.91 339.67 350.77 330.55 359.56 322.94 368.25 315.89 377.95 310.76 388.25 308.21 398.5 306.51 409.43 307.57 420.59 311.7" stroke-dasharray="3 0" transform="rotate(76.76, 400, 400)" opacity="0.68"></path><path d="M418.7 322.49C428.22 326.62 436.9 332.68 444.38 339.98 451.78 347.29 457.87 355.65 462.29 364.49 466.52 373.2 468.99 382.43 469.45 391.8 469.72 401.1 468.04 410.66 464.28 420.05 460.55 429.43 455.29 437.73 449.05 444.59 443.04 451.31 436.09 456.4 428.61 459.52 421.33 462.35 413.42 463.14 405.2 461.76 397.05 460.31 388.48 457 379.81 451.97 371.13 447.5 363.15 442.16 356.18 436.41 349.24 431.44 343.36 425.89 338.89 419.91 334.5 414.41 331.57 408.09 330.41 401.01 329.34 394.06 330.03 386.09 332.74 377.29 335.48 368.48 339.93 359.7 345.63 351.46 351.26 343.36 358.13 336.03 365.81 330.07 373.43 324.52 381.9 320.62 390.83 318.86 399.75 317.71 409.18 318.83 418.7 322.49" stroke-dasharray="8 10" transform="rotate(80.80000000000001, 400, 400)" opacity="0.41"></path><path d="M416.24 333.28C424.13 336.76 431.25 341.82 437.32 347.93 443.34 354.09 448.24 361.17 451.76 368.69 455.17 376.16 457.15 384.08 457.49 392.05 457.73 400 456.38 408.06 453.32 415.84 450.27 423.61 445.92 430.33 440.71 435.76 435.64 441.11 429.74 445.07 423.36 447.41 417.11 449.62 410.33 450.19 403.32 449.05 396.36 447.92 389.1 445.28 381.84 441.18 374.57 437.46 367.97 432.89 362.26 427.87 356.56 423.34 351.8 418.26 348.22 412.81 344.68 407.68 342.37 401.94 341.51 395.71 340.71 389.56 341.37 382.75 343.71 375.43 346.06 368.12 349.84 361.01 354.66 354.49 359.46 348.06 365.29 342.39 371.79 337.9 378.27 333.69 385.44 330.85 392.95 329.73 400.47 329.03 408.35 330.14 416.24 333.28" stroke-dasharray="3 2" transform="rotate(84.84, 400, 400)" opacity="0.24"></path><path d="M413.29 344.07C425.83 349.86 435.64 360.41 441.14 372.57 446.38 384.72 447.14 398.34 442.35 410.69 437.63 423.03 428.74 431.59 418.27 435.16 408.1 438.5 396.12 436.99 384.42 430.39 372.72 424.77 363.37 416.11 357.82 406.47 352.35 397.63 350.84 386.73 354.67 375.04 358.54 363.34 366.98 353.04 377.52 346.44 388.03 340.5 400.75 339.15 413.29 344.07" stroke-dasharray="6 5" transform="rotate(88.88, 400, 400)" opacity="0.37"></path><path d="M409.94 354.86C419.27 359.22 426.46 367.11 430.45 376.24 434.31 385.43 434.9 395.72 431.39 404.9 427.92 414.08 421.24 420.31 413.29 422.88 405.48 425.4 396.32 424.41 387.48 419.6 378.64 415.33 371.71 408.51 367.68 400.83 363.68 393.57 362.66 384.91 365.63 376.12 368.62 367.33 375.04 360.05 383.03 355.68 391.01 351.65 400.61 351 409.94 354.86" stroke-dasharray="10 3" transform="rotate(92.92, 400, 400)" opacity="0.70"></path><path d="M406.28 365.65C418.61 371.64 424.99 386.68 420.43 398.82 415.93 410.95 402.81 415.21 390.92 408.81 379.02 403.36 372.54 390.39 376.59 378.63 380.69 366.86 393.94 360.55 406.28 365.65" stroke-dasharray="8 8" transform="rotate(96.96, 400, 400)" opacity="0.69"></path></g></svg>