<?xml version="1.0" encoding="UTF-8" standalone="no" ?>
<!DOCTYPE svg PUBLIC "-//W3C//DTD SVG 1.1//EN" "http://www.w3.org/Graphics/SVG/1.1/DTD/svg11.dtd">
<svg xmlns="http://www.w3.org/2000/svg" xmlns:xlink="http://www.w3.org/1999/xlink" version="1.1" width="1080" height="1080" viewBox="0 0 1080 1080" xml:space="preserve">
<desc>Created with Fabric.js 5.2.4</desc>
<defs>
</defs>
<rect x="0" y="0" width="100%" height="100%" fill="transparent"></rect>
<g transform="matrix(1 0 0 1 540 540)" id="be4e3dd0-b211-49ce-8e4b-3f489658b345"  >
<rect style="stroke: none; stroke-width: 1; stroke-dasharray: none; stroke-linecap: butt; stroke-dashoffset: 0; stroke-linejoin: miter; stroke-miterlimit: 4; fill: rgb(255,255,255); fill-rule: nonzero; opacity: 1; visibility: hidden;" vector-effect="non-scaling-stroke"  x="-540" y="-540" rx="0" ry="0" width="1080" height="1080" />
</g>
<g transform="matrix(1 0 0 1 540 540)" id="4da1625b-9f3a-44fe-bad6-f5d642bad5d3"  >
</g>
<g transform="matrix(1 0 0 1 545.37 543.7)"  >
<path style="stroke: rgb(249,249,249); stroke-width: 2; stroke-dasharray: none; stroke-linecap: butt; stroke-dashoffset: 0; stroke-linejoin: miter; stroke-miterlimit: 50; fill: none; fill-rule: nonzero; opacity: 1;" vector-effect="non-scaling-stroke"  transform=" translate(-513.9, -364.2)" d="M 438.8 420.9 L 402.8 420.9 M 420.8 438.9 L 420.8 402.9 M 239.2 15.7 C 239.2 20.1 235.6 23.6 231.2 23.5 C 226.89999999999998 23.5 223.39999999999998 20 223.39999999999998 15.7 C 223.39999999999998 11.299999999999999 226.89999999999998 7.799999999999999 231.29999999999998 7.799999999999999 C 235.7 7.799999999999999 239.2 11.299999999999999 239.2 15.7 L 239.2 15.7 z M 267.3 15.7 C 267.3 20.1 263.8 23.6 259.40000000000003 23.6 C 255.00000000000006 23.6 251.50000000000003 20.1 251.50000000000003 15.700000000000001 L 251.50000000000003 15.700000000000001 C 251.50000000000003 11.3 255.00000000000003 7.800000000000001 259.40000000000003 7.800000000000001 C 263.70000000000005 7.800000000000001 267.20000000000005 11.4 267.3 15.700000000000001 z M 295.3 15.7 C 295.3 20.1 291.7 23.6 287.3 23.5 C 283 23.5 279.5 20 279.5 15.7 C 279.5 11.299999999999999 283 7.799999999999999 287.4 7.799999999999999 C 291.79999999999995 7.799999999999999 295.29999999999995 11.299999999999999 295.29999999999995 15.7 L 295.29999999999995 15.7 z M 323.40000000000003 15.7 C 323.40000000000003 20.1 319.90000000000003 23.6 315.50000000000006 23.6 C 311.1000000000001 23.6 307.6000000000001 20.1 307.6000000000001 15.700000000000001 C 307.6000000000001 11.3 311.1000000000001 7.800000000000001 315.50000000000006 7.800000000000001 C 319.90000000000003 7.800000000000001 323.40000000000003 11.4 323.40000000000003 15.700000000000001 z M 351.50000000000006 15.7 C 351.50000000000006 20.1 347.90000000000003 23.6 343.50000000000006 23.5 C 339.20000000000005 23.5 335.70000000000005 20 335.70000000000005 15.7 C 335.70000000000005 11.299999999999999 339.20000000000005 7.799999999999999 343.6 7.799999999999999 C 348 7.799999999999999 351.5 11.399999999999999 351.5 15.7 z M 684.4000000000001 712.7 C 684.4000000000001 717.1 680.9000000000001 720.6 676.5000000000001 720.6 C 672.1000000000001 720.6 668.6000000000001 717.1 668.6000000000001 712.7 L 668.6000000000001 712.7 C 668.6000000000001 708.3000000000001 672.1000000000001 704.8000000000001 676.5000000000001 704.8000000000001 C 680.9000000000001 704.9000000000001 684.4000000000001 708.4000000000001 684.4000000000001 712.7 z M 712.5000000000001 712.7 C 712.5000000000001 717.1 709.0000000000001 720.6 704.6000000000001 720.6 C 700.2000000000002 720.6 696.7000000000002 717.1 696.7000000000002 712.7 L 696.7000000000002 712.7 C 696.7000000000002 708.3000000000001 700.2000000000002 704.8000000000001 704.6000000000001 704.8000000000001 C 709.0000000000001 704.8000000000001 712.5000000000001 708.4000000000001 712.5000000000001 712.7 L 712.5000000000001 712.7 z M 740.5000000000001 712.7 C 740.5000000000001 717.1 737.0000000000001 720.6 732.6000000000001 720.6 C 728.2000000000002 720.6 724.7000000000002 717.1 724.7000000000002 712.7 L 724.7000000000002 712.7 C 724.7000000000002 708.3000000000001 728.2000000000002 704.8000000000001 732.6000000000001 704.8000000000001 C 737.0000000000001 704.9000000000001 740.5000000000001 708.4000000000001 740.5000000000001 712.7 z M 768.6000000000001 712.7 C 768.6000000000001 717.1 765.1000000000001 720.6 760.7000000000002 720.6 C 756.3000000000002 720.6 752.8000000000002 717.1 752.8000000000002 712.7 L 752.8000000000002 712.7 C 752.8000000000002 708.3000000000001 756.3000000000002 704.8000000000001 760.7000000000002 704.8000000000001 C 765.1000000000001 704.8000000000001 768.6000000000001 708.4000000000001 768.6000000000001 712.7 L 768.6000000000001 712.7 z M 796.7000000000002 712.7 C 796.7000000000002 717.1 793.2000000000002 720.6 788.8000000000002 720.6 C 784.4000000000002 720.6 780.9000000000002 717.1 780.9000000000002 712.7 L 780.9000000000002 712.7 C 780.9000000000002 708.3000000000001 784.4000000000002 704.8000000000001 788.8000000000002 704.8000000000001 C 793.1000000000001 704.9000000000001 796.7000000000002 708.4000000000001 796.7000000000002 712.7 z M 717 298.8 L 717 298.8 L 739.3 299.40000000000003 L 739.3 299.40000000000003 L 738.6999999999999 277.1 L 738.6999999999999 277.1 L 760.9999999999999 277.70000000000005 L 760.9999999999999 277.70000000000005 L 760.3999999999999 255.40000000000003 L 760.3999999999999 255.40000000000003 L 782.6999999999998 256.00000000000006 L 782.6999999999998 256.00000000000006 L 782.0999999999998 233.70000000000005 L 782.0999999999998 233.70000000000005 L 804.3999999999997 234.30000000000004 L 804.3999999999997 234.30000000000004 L 803.7999999999997 212.00000000000003 L 803.7999999999997 212.00000000000003" stroke-linecap="round" />
</g>
<g transform="matrix(1 0 0 1 558.61 555.81)"  >
<path style="stroke: none; stroke-width: 1; stroke-dasharray: none; stroke-linecap: butt; stroke-dashoffset: 0; stroke-linejoin: miter; stroke-miterlimit: 4; fill: rgb(239,239,239); fill-rule: nonzero; opacity: 1;" vector-effect="non-scaling-stroke"  transform=" translate(-508.53, -289.45)" d="M 937.7 205.7 C 937.7 221.39999999999998 925 234.1 909.3000000000001 234.1 C 893.6000000000001 234.1 880.9000000000001 221.4 880.9000000000001 205.7 C 880.9000000000001 189.99999999999997 893.6000000000001 177.29999999999998 909.3000000000001 177.29999999999998 C 925 177.29999999999998 937.7 189.99999999999997 937.7 205.7 z M 929 156.5 L 889.5 156.5 L 889.5 -0.1 L 929 -0.1 L 929 156.5 z M 396.2 406 C 396.2 421.7 383.5 434.4 367.8 434.4 C 352.1 434.4 339.40000000000003 421.7 339.40000000000003 406 C 339.40000000000003 390.3 352.1 377.6 367.8 377.6 C 383.5 377.6 396.2 390.3 396.2 406 z M 387.5 356.8 L 348 356.8 L 348 200.2 L 387.5 200.2 L 387.5 356.79999999999995 z M 80 531.8 C 29.299999999999997 531.8 -2.0999999999999943 476.59999999999997 23.799999999999997 432.99999999999994 C 49.099999999999994 390.3999999999999 110.8 390.3999999999999 136.1 432.99999999999994 C 162.1 476.59999999999997 130.7 531.8 80 531.8 z M 571.8 179.69999999999993 C 521.0999999999999 179.69999999999993 489.69999999999993 124.49999999999993 515.5999999999999 80.89999999999993 C 540.8999999999999 38.29999999999993 602.5999999999999 38.29999999999993 627.8999999999999 80.89999999999993 C 653.8999999999999 124.49999999999994 622.4999999999999 179.69999999999993 571.7999999999998 179.69999999999993 z M 937.1 579 C 886.4 579 855 523.8 880.9 480.2 C 906.1999999999999 437.59999999999997 967.9 437.59999999999997 993.1999999999999 480.2 C 1019.1999999999999 523.8 987.8 579 937.0999999999999 579 z M 162.4 215.5 C 162.4 231.2 149.70000000000002 243.9 134 243.9 C 118.29999999999998 243.9 105.6 231.20000000000002 105.6 215.5 C 105.6 199.79999999999998 118.3 187.1 134 187.1 C 149.7 187.1 162.4 199.79999999999998 162.4 215.5 z M 153.6 166.3 L 114.1 166.3 L 114.1 9.7 L 153.6 9.7 L 153.6 166.29999999999998 z" stroke-linecap="round" />
</g>
<g transform="matrix(1 0 0 1 632.62 262.7)"  >
<path style="stroke: none; stroke-width: 1; stroke-dasharray: none; stroke-linecap: butt; stroke-dashoffset: 0; stroke-linejoin: miter; stroke-miterlimit: 4; fill: rgb(51,97,194); fill-rule: nonzero; opacity: 1;" vector-effect="non-scaling-stroke"  transform=" translate(-601.15, -83.2)" d="M 601.1 80.6 L 601.2 85.8" stroke-linecap="round" />
</g>
<g transform="matrix(1 0 0 1 702.37 304.3)"  >
<path style="stroke: none; stroke-width: 1; stroke-dasharray: none; stroke-linecap: butt; stroke-dashoffset: 0; stroke-linejoin: miter; stroke-miterlimit: 4; fill: rgb(67,47,198); fill-rule: nonzero; opacity: 1;" vector-effect="non-scaling-stroke"  transform=" translate(-670.9, -124.8)" d="M 740.6 59.6 L 740.6 223.6 L 601.2 223.6 L 601.2 26 L 707 26 L 740.6 59.6 z" stroke-linecap="round" />
</g>
<g transform="matrix(1 0 0 1 626.15 278.35)"  >
<path style="stroke: none; stroke-width: 1; stroke-dasharray: none; stroke-linecap: butt; stroke-dashoffset: 0; stroke-linejoin: miter; stroke-miterlimit: 4; fill: rgb(201,120,75); fill-rule: nonzero; opacity: 1;" vector-effect="non-scaling-stroke"  transform=" translate(-594.68, -98.85)" d="M 601.1 127.7 L 574.8000000000001 128.8 C 574.8000000000001 128.8 585.8000000000001 74.80000000000001 601.0000000000001 68.9 L 601.1000000000001 98.80000000000001 C 606.4000000000001 94.4 612.0000000000001 90.4 614.0000000000001 91.50000000000001 C 617.8000000000001 93.60000000000001 601.1000000000001 127.70000000000002 601.1000000000001 127.70000000000002 z" stroke-linecap="round" />
</g>
<g transform="matrix(1 0 0 1 619.37 278)"  >
<path style="stroke: rgb(255,255,255); stroke-width: 1.5; stroke-dasharray: none; stroke-linecap: square; stroke-dashoffset: 0; stroke-linejoin: miter; stroke-miterlimit: 50; fill: none; fill-rule: nonzero; opacity: 1;" vector-effect="non-scaling-stroke"  transform=" translate(-587.9, -98.5)" d="M 601 68.9 C 601 68.9 587.5 70.30000000000001 574.8 128.10000000000002" stroke-linecap="round" />
</g>
<g transform="matrix(1 0 0 1 647.37 568.13)"  >
<path style="stroke: none; stroke-width: 1; stroke-dasharray: none; stroke-linecap: butt; stroke-dashoffset: 0; stroke-linejoin: miter; stroke-miterlimit: 4; fill: rgb(61,21,95); fill-rule: nonzero; opacity: 1;" vector-effect="non-scaling-stroke"  transform=" translate(-615.9, -388.63)" d="M 708.7 606 L 708.1 640.4 C 708 648 715.2 653.6999999999999 722.6 651.8 L 800.8000000000001 631.5999999999999 C 807.1 629.9999999999999 807.1 620.9999999999999 800.8000000000001 619.3 L 764.6 609.8 L 708.7 606 z M 795.5 276.3 L 819.1 278 C 826.7 278.6 832.8000000000001 271.7 831.3000000000001 264.2 L 817.5000000000001 194.6 C 816.2000000000002 188.29999999999998 807.5000000000001 187.6 805.3000000000001 193.7 L 788.7 240.7 L 795.5 276.3 z M 463.3 361.70000000000005 L 475.6 404.50000000000006 L 544.1 385.6000000000001 L 562.2 441.1000000000001 L 455.30000000000007 485.50000000000006 C 435.00000000000006 493.90000000000003 412.1000000000001 481.80000000000007 407.6000000000001 460.40000000000003 C 396.2000000000001 405.40000000000003 388.30000000000007 310.90000000000003 462.6000000000001 294.80000000000007 C 482.2000000000001 290.50000000000006 532.7 209.70000000000007 532.7 209.70000000000007 L 546 131 L 604.2 125.1 L 597.3000000000001 221.7 C 596.6 232 593.0000000000001 241.89999999999998 586.9000000000001 250.29999999999998 L 538.1000000000001 317.7 L 581.9000000000001 391.9 L 469.5000000000001 455.9 L 463.3000000000001 361.7 z" stroke-linecap="round" />
</g>
<g transform="matrix(1 0 0 1 721.52 503.65)"  >
<path style="stroke: none; stroke-width: 1; stroke-dasharray: none; stroke-linecap: butt; stroke-dashoffset: 0; stroke-linejoin: miter; stroke-miterlimit: 4; fill: rgb(204,243,129); fill-rule: nonzero; opacity: 1;" vector-effect="non-scaling-stroke"  transform=" translate(-690.05, -324.15)" d="M 571.8 427.2 C 572.9 426.09999999999997 585.6999999999999 353.2 593.8 306.29999999999995 C 597.9 282.69999999999993 615.1999999999999 263.69999999999993 638.3 257.49999999999994 L 784.6999999999999 218.09999999999994 L 808.3 291.29999999999995 L 677 335.9 L 669 430.2 L 571.8 427.2 z" stroke-linecap="round" />
</g>
<g transform="matrix(1 0 0 1 656.15 686.42)"  >
<path style="stroke: none; stroke-width: 1; stroke-dasharray: none; stroke-linecap: butt; stroke-dashoffset: 0; stroke-linejoin: miter; stroke-miterlimit: 4; fill: rgb(204,243,129); fill-rule: nonzero; opacity: 1;" vector-effect="non-scaling-stroke"  transform=" translate(-624.68, -506.93)" d="M 472.1 436.9 L 477.40000000000003 449 C 488.6 474.5 514.7 490.1 542.4000000000001 487.8 L 635.3000000000001 480.2 L 693 628.4 C 693 628.4 779.7 606.9 777.2 603.6 C 775.4000000000001 601.2 735.6 492.5 711.8000000000001 427.3 C 701.6 399.3 673.2 382.1 643.7 386 L 511.90000000000003 403.4 L 472.1 436.9 z" stroke-linecap="round" />
</g>
<g transform="matrix(1 0 0 1 541.07 612.2)"  >
<path style="stroke: none; stroke-width: 1; stroke-dasharray: none; stroke-linecap: butt; stroke-dashoffset: 0; stroke-linejoin: miter; stroke-miterlimit: 4; fill: rgb(61,21,95); fill-rule: nonzero; opacity: 1;" vector-effect="non-scaling-stroke"  transform=" translate(-509.6, -432.7)" d="M 481.1 474.8 L 562.2 441.1 L 545.8000000000001 390.6 L 457.00000000000006 412.1 L 481.1000000000001 474.8 z" stroke-linecap="round" />
</g>
<g transform="matrix(1 0 0 1 474.92 576.75)" clip-path="url(#CLIPPATH_67)"  >
<clipPath id="CLIPPATH_67" >
	<path transform="matrix(1 0 0 1 58.86 -90.68) translate(-502.32, -306.57)" d="M 546.1 131 L 532.8000000000001 209.6 C 532.8000000000001 209.6 482.30000000000007 290.4 462.70000000000005 294.7 C 388.40000000000003 310.8 396.20000000000005 405.29999999999995 407.70000000000005 460.29999999999995 C 412.20000000000005 481.79999999999995 435.1 493.9 455.40000000000003 485.4 L 481.20000000000005 474.7 L 562.2 441 L 551.8000000000001 409 L 582.0000000000001 391.8 L 538.2000000000002 317.6 L 587.0000000000001 250.20000000000002 C 593.1000000000001 241.8 596.7000000000002 231.9 597.4000000000001 221.60000000000002 L 604.3000000000001 125.00000000000003 L 546.1 131.00000000000003 z" stroke-linecap="round" />
</clipPath>
<path style="stroke: none; stroke-width: 1; stroke-dasharray: none; stroke-linecap: butt; stroke-dashoffset: 0; stroke-linejoin: miter; stroke-miterlimit: 4; fill: rgb(67,47,198); fill-rule: nonzero; opacity: 1;" vector-effect="non-scaling-stroke"  transform=" translate(-443.45, -397.25)" d="M 460.1 398.6 C 459.40000000000003 407.8 451.3 414.6 442.1 413.90000000000003 C 432.90000000000003 413.20000000000005 426.1 405.1 426.8 395.90000000000003 C 427.5 386.70000000000005 435.6 379.90000000000003 444.8 380.6 C 454 381.3 460.8 389.40000000000003 460.1 398.6 z" stroke-linecap="round" />
</g>
<g transform="matrix(1 0 0 1 542.03 582.15)" clip-path="url(#CLIPPATH_68)"  >
<clipPath id="CLIPPATH_68" >
	<path transform="matrix(1 0 0 1 -8.24 -96.08) translate(-502.32, -306.57)" d="M 546.1 131 L 532.8000000000001 209.6 C 532.8000000000001 209.6 482.30000000000007 290.4 462.70000000000005 294.7 C 388.40000000000003 310.8 396.20000000000005 405.29999999999995 407.70000000000005 460.29999999999995 C 412.20000000000005 481.79999999999995 435.1 493.9 455.40000000000003 485.4 L 481.20000000000005 474.7 L 562.2 441 L 551.8000000000001 409 L 582.0000000000001 391.8 L 538.2000000000002 317.6 L 587.0000000000001 250.20000000000002 C 593.1000000000001 241.8 596.7000000000002 231.9 597.4000000000001 221.60000000000002 L 604.3000000000001 125.00000000000003 L 546.1 131.00000000000003 z" stroke-linecap="round" />
</clipPath>
<path style="stroke: none; stroke-width: 1; stroke-dasharray: none; stroke-linecap: butt; stroke-dashoffset: 0; stroke-linejoin: miter; stroke-miterlimit: 4; fill: rgb(67,47,198); fill-rule: nonzero; opacity: 1;" vector-effect="non-scaling-stroke"  transform=" translate(-510.56, -402.65)" d="M 527.2 404 C 526.5 413.2 518.4000000000001 420 509.20000000000005 419.3 C 500 418.6 493.20000000000005 410.5 493.90000000000003 401.3 C 494.6 392.1 502.70000000000005 385.3 511.90000000000003 386 C 521.1 386.8 528 394.8 527.2 404 z" stroke-linecap="round" />
</g>
<g transform="matrix(1 0 0 1 609.22 587.65)" clip-path="url(#CLIPPATH_69)"  >
<clipPath id="CLIPPATH_69" >
	<path transform="matrix(1 0 0 1 -75.44 -101.58) translate(-502.32, -306.57)" d="M 546.1 131 L 532.8000000000001 209.6 C 532.8000000000001 209.6 482.30000000000007 290.4 462.70000000000005 294.7 C 388.40000000000003 310.8 396.20000000000005 405.29999999999995 407.70000000000005 460.29999999999995 C 412.20000000000005 481.79999999999995 435.1 493.9 455.40000000000003 485.4 L 481.20000000000005 474.7 L 562.2 441 L 551.8000000000001 409 L 582.0000000000001 391.8 L 538.2000000000002 317.6 L 587.0000000000001 250.20000000000002 C 593.1000000000001 241.8 596.7000000000002 231.9 597.4000000000001 221.60000000000002 L 604.3000000000001 125.00000000000003 L 546.1 131.00000000000003 z" stroke-linecap="round" />
</clipPath>
<path style="stroke: none; stroke-width: 1; stroke-dasharray: none; stroke-linecap: butt; stroke-dashoffset: 0; stroke-linejoin: miter; stroke-miterlimit: 4; fill: rgb(67,47,198); fill-rule: nonzero; opacity: 1;" vector-effect="non-scaling-stroke"  transform=" translate(-577.75, -408.15)" d="M 594.4 409.5 C 593.6999999999999 418.7 585.6 425.5 576.4 424.8 C 567.1999999999999 424.1 560.4 416 561.1 406.8 C 561.8000000000001 397.6 569.9 390.8 579.1 391.5 C 588.3000000000001 392.2 595.1 400.3 594.4 409.5 z" stroke-linecap="round" />
</g>
<g transform="matrix(1 0 0 1 512.23 533.05)" clip-path="url(#CLIPPATH_70)"  >
<clipPath id="CLIPPATH_70" >
	<path transform="matrix(1 0 0 1 21.56 -46.98) translate(-502.32, -306.57)" d="M 546.1 131 L 532.8000000000001 209.6 C 532.8000000000001 209.6 482.30000000000007 290.4 462.70000000000005 294.7 C 388.40000000000003 310.8 396.20000000000005 405.29999999999995 407.70000000000005 460.29999999999995 C 412.20000000000005 481.79999999999995 435.1 493.9 455.40000000000003 485.4 L 481.20000000000005 474.7 L 562.2 441 L 551.8000000000001 409 L 582.0000000000001 391.8 L 538.2000000000002 317.6 L 587.0000000000001 250.20000000000002 C 593.1000000000001 241.8 596.7000000000002 231.9 597.4000000000001 221.60000000000002 L 604.3000000000001 125.00000000000003 L 546.1 131.00000000000003 z" stroke-linecap="round" />
</clipPath>
<path style="stroke: none; stroke-width: 1; stroke-dasharray: none; stroke-linecap: butt; stroke-dashoffset: 0; stroke-linejoin: miter; stroke-miterlimit: 4; fill: rgb(67,47,198); fill-rule: nonzero; opacity: 1;" vector-effect="non-scaling-stroke"  transform=" translate(-480.76, -353.55)" d="M 497.4 354.9 C 496.7 364.09999999999997 488.59999999999997 370.9 479.4 370.2 C 470.2 369.5 463.4 361.4 464.09999999999997 352.2 C 464.79999999999995 343 472.9 336.2 482.09999999999997 336.9 C 491.29999999999995 337.59999999999997 498.2 345.7 497.4 354.9 z" stroke-linecap="round" />
</g>
<g transform="matrix(1 0 0 1 579.42 538.45)" clip-path="url(#CLIPPATH_71)"  >
<clipPath id="CLIPPATH_71" >
	<path transform="matrix(1 0 0 1 -45.64 -52.38) translate(-502.32, -306.57)" d="M 546.1 131 L 532.8000000000001 209.6 C 532.8000000000001 209.6 482.30000000000007 290.4 462.70000000000005 294.7 C 388.40000000000003 310.8 396.20000000000005 405.29999999999995 407.70000000000005 460.29999999999995 C 412.20000000000005 481.79999999999995 435.1 493.9 455.40000000000003 485.4 L 481.20000000000005 474.7 L 562.2 441 L 551.8000000000001 409 L 582.0000000000001 391.8 L 538.2000000000002 317.6 L 587.0000000000001 250.20000000000002 C 593.1000000000001 241.8 596.7000000000002 231.9 597.4000000000001 221.60000000000002 L 604.3000000000001 125.00000000000003 L 546.1 131.00000000000003 z" stroke-linecap="round" />
</clipPath>
<path style="stroke: none; stroke-width: 1; stroke-dasharray: none; stroke-linecap: butt; stroke-dashoffset: 0; stroke-linejoin: miter; stroke-miterlimit: 4; fill: rgb(67,47,198); fill-rule: nonzero; opacity: 1;" vector-effect="non-scaling-stroke"  transform=" translate(-547.95, -358.95)" d="M 564.6 360.3 C 563.9 369.5 555.8000000000001 376.3 546.6 375.6 C 537.4 374.90000000000003 530.6 366.8 531.3000000000001 357.6 C 532.0000000000001 348.40000000000003 540.1 341.6 549.3000000000001 342.3 C 558.5000000000001 343.1 565.3000000000001 351.1 564.6 360.3 z" stroke-linecap="round" />
</g>
<g transform="matrix(1 0 0 1 646.53 543.95)" clip-path="url(#CLIPPATH_72)"  >
<clipPath id="CLIPPATH_72" >
	<path transform="matrix(1 0 0 1 -112.74 -57.88) translate(-502.32, -306.57)" d="M 546.1 131 L 532.8000000000001 209.6 C 532.8000000000001 209.6 482.30000000000007 290.4 462.70000000000005 294.7 C 388.40000000000003 310.8 396.20000000000005 405.29999999999995 407.70000000000005 460.29999999999995 C 412.20000000000005 481.79999999999995 435.1 493.9 455.40000000000003 485.4 L 481.20000000000005 474.7 L 562.2 441 L 551.8000000000001 409 L 582.0000000000001 391.8 L 538.2000000000002 317.6 L 587.0000000000001 250.20000000000002 C 593.1000000000001 241.8 596.7000000000002 231.9 597.4000000000001 221.60000000000002 L 604.3000000000001 125.00000000000003 L 546.1 131.00000000000003 z" stroke-linecap="round" />
</clipPath>
<path style="stroke: none; stroke-width: 1; stroke-dasharray: none; stroke-linecap: butt; stroke-dashoffset: 0; stroke-linejoin: miter; stroke-miterlimit: 4; fill: rgb(67,47,198); fill-rule: nonzero; opacity: 1;" vector-effect="non-scaling-stroke"  transform=" translate(-615.06, -364.45)" d="M 631.7 365.8 C 631 375 622.9000000000001 381.8 613.7 381.1 C 604.5 380.40000000000003 597.7 372.3 598.4000000000001 363.1 C 599.1000000000001 353.90000000000003 607.2 347.1 616.4000000000001 347.8 C 625.6000000000001 348.6 632.5000000000001 356.6 631.7 365.8 z" stroke-linecap="round" />
</g>
<g transform="matrix(1 0 0 1 445.12 527.55)" clip-path="url(#CLIPPATH_73)"  >
<clipPath id="CLIPPATH_73" >
	<path transform="matrix(1 0 0 1 88.66 -41.48) translate(-502.32, -306.57)" d="M 546.1 131 L 532.8000000000001 209.6 C 532.8000000000001 209.6 482.30000000000007 290.4 462.70000000000005 294.7 C 388.40000000000003 310.8 396.20000000000005 405.29999999999995 407.70000000000005 460.29999999999995 C 412.20000000000005 481.79999999999995 435.1 493.9 455.40000000000003 485.4 L 481.20000000000005 474.7 L 562.2 441 L 551.8000000000001 409 L 582.0000000000001 391.8 L 538.2000000000002 317.6 L 587.0000000000001 250.20000000000002 C 593.1000000000001 241.8 596.7000000000002 231.9 597.4000000000001 221.60000000000002 L 604.3000000000001 125.00000000000003 L 546.1 131.00000000000003 z" stroke-linecap="round" />
</clipPath>
<path style="stroke: none; stroke-width: 1; stroke-dasharray: none; stroke-linecap: butt; stroke-dashoffset: 0; stroke-linejoin: miter; stroke-miterlimit: 4; fill: rgb(67,47,198); fill-rule: nonzero; opacity: 1;" vector-effect="non-scaling-stroke"  transform=" translate(-413.65, -348.05)" d="M 430.3 349.4 C 429.6 358.59999999999997 421.5 365.4 412.3 364.7 C 403.1 364 396.3 355.9 397 346.7 C 397.7 337.5 405.8 330.7 415 331.4 C 424.2 332.2 431 340.2 430.3 349.4 z" stroke-linecap="round" />
</g>
<g transform="matrix(1 0 0 1 504.53 625.85)" clip-path="url(#CLIPPATH_74)"  >
<clipPath id="CLIPPATH_74" >
	<path transform="matrix(1 0 0 1 29.26 -139.78) translate(-502.32, -306.57)" d="M 546.1 131 L 532.8000000000001 209.6 C 532.8000000000001 209.6 482.30000000000007 290.4 462.70000000000005 294.7 C 388.40000000000003 310.8 396.20000000000005 405.29999999999995 407.70000000000005 460.29999999999995 C 412.20000000000005 481.79999999999995 435.1 493.9 455.40000000000003 485.4 L 481.20000000000005 474.7 L 562.2 441 L 551.8000000000001 409 L 582.0000000000001 391.8 L 538.2000000000002 317.6 L 587.0000000000001 250.20000000000002 C 593.1000000000001 241.8 596.7000000000002 231.9 597.4000000000001 221.60000000000002 L 604.3000000000001 125.00000000000003 L 546.1 131.00000000000003 z" stroke-linecap="round" />
</clipPath>
<path style="stroke: none; stroke-width: 1; stroke-dasharray: none; stroke-linecap: butt; stroke-dashoffset: 0; stroke-linejoin: miter; stroke-miterlimit: 4; fill: rgb(67,47,198); fill-rule: nonzero; opacity: 1;" vector-effect="non-scaling-stroke"  transform=" translate(-473.06, -446.35)" d="M 489.7 447.7 C 489 456.9 480.9 463.7 471.7 463 C 462.5 462.3 455.7 454.2 456.4 445 C 457.09999999999997 435.8 465.2 429 474.4 429.7 C 483.59999999999997 430.5 490.5 438.5 489.7 447.7 z" stroke-linecap="round" />
</g>
<g transform="matrix(1 0 0 1 571.72 631.35)" clip-path="url(#CLIPPATH_75)"  >
<clipPath id="CLIPPATH_75" >
	<path transform="matrix(1 0 0 1 -37.94 -145.28) translate(-502.32, -306.57)" d="M 546.1 131 L 532.8000000000001 209.6 C 532.8000000000001 209.6 482.30000000000007 290.4 462.70000000000005 294.7 C 388.40000000000003 310.8 396.20000000000005 405.29999999999995 407.70000000000005 460.29999999999995 C 412.20000000000005 481.79999999999995 435.1 493.9 455.40000000000003 485.4 L 481.20000000000005 474.7 L 562.2 441 L 551.8000000000001 409 L 582.0000000000001 391.8 L 538.2000000000002 317.6 L 587.0000000000001 250.20000000000002 C 593.1000000000001 241.8 596.7000000000002 231.9 597.4000000000001 221.60000000000002 L 604.3000000000001 125.00000000000003 L 546.1 131.00000000000003 z" stroke-linecap="round" />
</clipPath>
<path style="stroke: none; stroke-width: 1; stroke-dasharray: none; stroke-linecap: butt; stroke-dashoffset: 0; stroke-linejoin: miter; stroke-miterlimit: 4; fill: rgb(67,47,198); fill-rule: nonzero; opacity: 1;" vector-effect="non-scaling-stroke"  transform=" translate(-540.25, -451.85)" d="M 556.9 453.2 C 556.1999999999999 462.4 548.1 469.2 538.9 468.5 C 529.6999999999999 467.8 522.9 459.7 523.6 450.5 C 524.3000000000001 441.3 532.4 434.5 541.6 435.2 C 550.8000000000001 435.9 557.6 444 556.9 453.2 z" stroke-linecap="round" />
</g>
<g transform="matrix(1 0 0 1 638.83 636.75)" clip-path="url(#CLIPPATH_76)"  >
<clipPath id="CLIPPATH_76" >
	<path transform="matrix(1 0 0 1 -105.04 -150.68) translate(-502.32, -306.57)" d="M 546.1 131 L 532.8000000000001 209.6 C 532.8000000000001 209.6 482.30000000000007 290.4 462.70000000000005 294.7 C 388.40000000000003 310.8 396.20000000000005 405.29999999999995 407.70000000000005 460.29999999999995 C 412.20000000000005 481.79999999999995 435.1 493.9 455.40000000000003 485.4 L 481.20000000000005 474.7 L 562.2 441 L 551.8000000000001 409 L 582.0000000000001 391.8 L 538.2000000000002 317.6 L 587.0000000000001 250.20000000000002 C 593.1000000000001 241.8 596.7000000000002 231.9 597.4000000000001 221.60000000000002 L 604.3000000000001 125.00000000000003 L 546.1 131.00000000000003 z" stroke-linecap="round" />
</clipPath>
<path style="stroke: none; stroke-width: 1; stroke-dasharray: none; stroke-linecap: butt; stroke-dashoffset: 0; stroke-linejoin: miter; stroke-miterlimit: 4; fill: rgb(67,47,198); fill-rule: nonzero; opacity: 1;" vector-effect="non-scaling-stroke"  transform=" translate(-607.36, -457.25)" d="M 624 458.6 C 623.3 467.8 615.2 474.6 606 473.90000000000003 C 596.8 473.20000000000005 590 465.1 590.7 455.90000000000003 C 591.4000000000001 446.70000000000005 599.5 439.90000000000003 608.7 440.6 C 617.9000000000001 441.40000000000003 624.8000000000001 449.40000000000003 624 458.6 z" stroke-linecap="round" />
</g>
<g transform="matrix(1 0 0 1 437.33 620.35)" clip-path="url(#CLIPPATH_77)"  >
<clipPath id="CLIPPATH_77" >
	<path transform="matrix(1 0 0 1 96.46 -134.28) translate(-502.32, -306.57)" d="M 546.1 131 L 532.8000000000001 209.6 C 532.8000000000001 209.6 482.30000000000007 290.4 462.70000000000005 294.7 C 388.40000000000003 310.8 396.20000000000005 405.29999999999995 407.70000000000005 460.29999999999995 C 412.20000000000005 481.79999999999995 435.1 493.9 455.40000000000003 485.4 L 481.20000000000005 474.7 L 562.2 441 L 551.8000000000001 409 L 582.0000000000001 391.8 L 538.2000000000002 317.6 L 587.0000000000001 250.20000000000002 C 593.1000000000001 241.8 596.7000000000002 231.9 597.4000000000001 221.60000000000002 L 604.3000000000001 125.00000000000003 L 546.1 131.00000000000003 z" stroke-linecap="round" />
</clipPath>
<path style="stroke: none; stroke-width: 1; stroke-dasharray: none; stroke-linecap: butt; stroke-dashoffset: 0; stroke-linejoin: miter; stroke-miterlimit: 4; fill: rgb(67,47,198); fill-rule: nonzero; opacity: 1;" vector-effect="non-scaling-stroke"  transform=" translate(-405.86, -440.85)" d="M 422.5 442.2 C 421.8 451.4 413.7 458.2 404.5 457.5 C 395.3 456.8 388.5 448.7 389.2 439.5 C 389.9 430.3 398 423.5 407.2 424.2 C 416.5 425 423.3 433 422.5 442.2 z" stroke-linecap="round" />
</g>
<g transform="matrix(1 0 0 1 490.22 391.05)" clip-path="url(#CLIPPATH_78)"  >
<clipPath id="CLIPPATH_78" >
	<path transform="matrix(1 0 0 1 43.56 95.02) translate(-502.32, -306.57)" d="M 546.1 131 L 532.8000000000001 209.6 C 532.8000000000001 209.6 482.30000000000007 290.4 462.70000000000005 294.7 C 388.40000000000003 310.8 396.20000000000005 405.29999999999995 407.70000000000005 460.29999999999995 C 412.20000000000005 481.79999999999995 435.1 493.9 455.40000000000003 485.4 L 481.20000000000005 474.7 L 562.2 441 L 551.8000000000001 409 L 582.0000000000001 391.8 L 538.2000000000002 317.6 L 587.0000000000001 250.20000000000002 C 593.1000000000001 241.8 596.7000000000002 231.9 597.4000000000001 221.60000000000002 L 604.3000000000001 125.00000000000003 L 546.1 131.00000000000003 z" stroke-linecap="round" />
</clipPath>
<path style="stroke: none; stroke-width: 1; stroke-dasharray: none; stroke-linecap: butt; stroke-dashoffset: 0; stroke-linejoin: miter; stroke-miterlimit: 4; fill: rgb(67,47,198); fill-rule: nonzero; opacity: 1;" vector-effect="non-scaling-stroke"  transform=" translate(-458.75, -211.55)" d="M 475.4 212.9 C 474.7 222.1 466.59999999999997 228.9 457.4 228.20000000000002 C 448.2 227.50000000000003 441.4 219.4 442.09999999999997 210.20000000000002 C 442.79999999999995 201.00000000000003 450.9 194.20000000000002 460.09999999999997 194.9 C 469.29999999999995 195.70000000000002 476.09999999999997 203.70000000000002 475.4 212.9 z" stroke-linecap="round" />
</g>
<g transform="matrix(1 0 0 1 557.42 396.55)" clip-path="url(#CLIPPATH_79)"  >
<clipPath id="CLIPPATH_79" >
	<path transform="matrix(1 0 0 1 -23.64 89.52) translate(-502.32, -306.57)" d="M 546.1 131 L 532.8000000000001 209.6 C 532.8000000000001 209.6 482.30000000000007 290.4 462.70000000000005 294.7 C 388.40000000000003 310.8 396.20000000000005 405.29999999999995 407.70000000000005 460.29999999999995 C 412.20000000000005 481.79999999999995 435.1 493.9 455.40000000000003 485.4 L 481.20000000000005 474.7 L 562.2 441 L 551.8000000000001 409 L 582.0000000000001 391.8 L 538.2000000000002 317.6 L 587.0000000000001 250.20000000000002 C 593.1000000000001 241.8 596.7000000000002 231.9 597.4000000000001 221.60000000000002 L 604.3000000000001 125.00000000000003 L 546.1 131.00000000000003 z" stroke-linecap="round" />
</clipPath>
<path style="stroke: none; stroke-width: 1; stroke-dasharray: none; stroke-linecap: butt; stroke-dashoffset: 0; stroke-linejoin: miter; stroke-miterlimit: 4; fill: rgb(67,47,198); fill-rule: nonzero; opacity: 1;" vector-effect="non-scaling-stroke"  transform=" translate(-525.95, -217.05)" d="M 542.6 218.4 C 541.9 227.6 533.8000000000001 234.4 524.6 233.70000000000002 C 515.4 233.00000000000003 508.6 224.9 509.3 215.70000000000002 C 510 206.50000000000003 518.1 199.70000000000002 527.3 200.4 C 536.5 201.1 543.3 209.20000000000002 542.5999999999999 218.4 z" stroke-linecap="round" />
</g>
<g transform="matrix(1 0 0 1 624.53 401.95)" clip-path="url(#CLIPPATH_80)"  >
<clipPath id="CLIPPATH_80" >
	<path transform="matrix(1 0 0 1 -90.74 84.12) translate(-502.32, -306.57)" d="M 546.1 131 L 532.8000000000001 209.6 C 532.8000000000001 209.6 482.30000000000007 290.4 462.70000000000005 294.7 C 388.40000000000003 310.8 396.20000000000005 405.29999999999995 407.70000000000005 460.29999999999995 C 412.20000000000005 481.79999999999995 435.1 493.9 455.40000000000003 485.4 L 481.20000000000005 474.7 L 562.2 441 L 551.8000000000001 409 L 582.0000000000001 391.8 L 538.2000000000002 317.6 L 587.0000000000001 250.20000000000002 C 593.1000000000001 241.8 596.7000000000002 231.9 597.4000000000001 221.60000000000002 L 604.3000000000001 125.00000000000003 L 546.1 131.00000000000003 z" stroke-linecap="round" />
</clipPath>
<path style="stroke: none; stroke-width: 1; stroke-dasharray: none; stroke-linecap: butt; stroke-dashoffset: 0; stroke-linejoin: miter; stroke-miterlimit: 4; fill: rgb(67,47,198); fill-rule: nonzero; opacity: 1;" vector-effect="non-scaling-stroke"  transform=" translate(-593.06, -222.45)" d="M 609.7 223.8 C 609 233 600.9000000000001 239.8 591.7 239.10000000000002 C 582.5 238.40000000000003 575.7 230.3 576.4000000000001 221.10000000000002 C 577.1000000000001 211.90000000000003 585.2 205.10000000000002 594.4000000000001 205.8 C 603.6000000000001 206.60000000000002 610.5000000000001 214.60000000000002 609.7 223.8 z" stroke-linecap="round" />
</g>
<g transform="matrix(1 0 0 1 423.03 385.55)" clip-path="url(#CLIPPATH_81)"  >
<clipPath id="CLIPPATH_81" >
	<path transform="matrix(1 0 0 1 110.76 100.52) translate(-502.32, -306.57)" d="M 546.1 131 L 532.8000000000001 209.6 C 532.8000000000001 209.6 482.30000000000007 290.4 462.70000000000005 294.7 C 388.40000000000003 310.8 396.20000000000005 405.29999999999995 407.70000000000005 460.29999999999995 C 412.20000000000005 481.79999999999995 435.1 493.9 455.40000000000003 485.4 L 481.20000000000005 474.7 L 562.2 441 L 551.8000000000001 409 L 582.0000000000001 391.8 L 538.2000000000002 317.6 L 587.0000000000001 250.20000000000002 C 593.1000000000001 241.8 596.7000000000002 231.9 597.4000000000001 221.60000000000002 L 604.3000000000001 125.00000000000003 L 546.1 131.00000000000003 z" stroke-linecap="round" />
</clipPath>
<path style="stroke: none; stroke-width: 1; stroke-dasharray: none; stroke-linecap: butt; stroke-dashoffset: 0; stroke-linejoin: miter; stroke-miterlimit: 4; fill: rgb(67,47,198); fill-rule: nonzero; opacity: 1;" vector-effect="non-scaling-stroke"  transform=" translate(-391.56, -206.05)" d="M 408.2 207.4 C 407.5 216.6 399.4 223.4 390.2 222.70000000000002 C 381 222.00000000000003 374.2 213.9 374.9 204.70000000000002 C 375.59999999999997 195.50000000000003 383.7 188.70000000000002 392.9 189.4 C 402.09999999999997 190.1 409 198.3 408.2 207.4 z" stroke-linecap="round" />
</g>
<g transform="matrix(1 0 0 1 519.83 440.15)" clip-path="url(#CLIPPATH_82)"  >
<clipPath id="CLIPPATH_82" >
	<path transform="matrix(1 0 0 1 13.96 45.92) translate(-502.32, -306.57)" d="M 546.1 131 L 532.8000000000001 209.6 C 532.8000000000001 209.6 482.30000000000007 290.4 462.70000000000005 294.7 C 388.40000000000003 310.8 396.20000000000005 405.29999999999995 407.70000000000005 460.29999999999995 C 412.20000000000005 481.79999999999995 435.1 493.9 455.40000000000003 485.4 L 481.20000000000005 474.7 L 562.2 441 L 551.8000000000001 409 L 582.0000000000001 391.8 L 538.2000000000002 317.6 L 587.0000000000001 250.20000000000002 C 593.1000000000001 241.8 596.7000000000002 231.9 597.4000000000001 221.60000000000002 L 604.3000000000001 125.00000000000003 L 546.1 131.00000000000003 z" stroke-linecap="round" />
</clipPath>
<path style="stroke: none; stroke-width: 1; stroke-dasharray: none; stroke-linecap: butt; stroke-dashoffset: 0; stroke-linejoin: miter; stroke-miterlimit: 4; fill: rgb(67,47,198); fill-rule: nonzero; opacity: 1;" vector-effect="non-scaling-stroke"  transform=" translate(-488.36, -260.65)" d="M 505 262 C 504.3 271.2 496.2 278 487 277.3 C 477.8 276.6 471 268.5 471.7 259.3 C 472.4 250.10000000000002 480.5 243.3 489.7 244 C 498.9 244.7 505.8 252.9 505 262 z" stroke-linecap="round" />
</g>
<g transform="matrix(1 0 0 1 587.02 445.65)" clip-path="url(#CLIPPATH_83)"  >
<clipPath id="CLIPPATH_83" >
	<path transform="matrix(1 0 0 1 -53.24 40.42) translate(-502.32, -306.57)" d="M 546.1 131 L 532.8000000000001 209.6 C 532.8000000000001 209.6 482.30000000000007 290.4 462.70000000000005 294.7 C 388.40000000000003 310.8 396.20000000000005 405.29999999999995 407.70000000000005 460.29999999999995 C 412.20000000000005 481.79999999999995 435.1 493.9 455.40000000000003 485.4 L 481.20000000000005 474.7 L 562.2 441 L 551.8000000000001 409 L 582.0000000000001 391.8 L 538.2000000000002 317.6 L 587.0000000000001 250.20000000000002 C 593.1000000000001 241.8 596.7000000000002 231.9 597.4000000000001 221.60000000000002 L 604.3000000000001 125.00000000000003 L 546.1 131.00000000000003 z" stroke-linecap="round" />
</clipPath>
<path style="stroke: none; stroke-width: 1; stroke-dasharray: none; stroke-linecap: butt; stroke-dashoffset: 0; stroke-linejoin: miter; stroke-miterlimit: 4; fill: rgb(67,47,198); fill-rule: nonzero; opacity: 1;" vector-effect="non-scaling-stroke"  transform=" translate(-555.55, -266.15)" d="M 572.2 267.5 C 571.5 276.7 563.4000000000001 283.5 554.2 282.8 C 545 282.1 538.2 274 538.9000000000001 264.8 C 539.6000000000001 255.60000000000002 547.7 248.8 556.9000000000001 249.5 C 566.1000000000001 250.3 572.9000000000001 258.3 572.2 267.5 z" stroke-linecap="round" />
</g>
<g transform="matrix(1 0 0 1 452.72 434.75)" clip-path="url(#CLIPPATH_84)"  >
<clipPath id="CLIPPATH_84" >
	<path transform="matrix(1 0 0 1 81.06 51.32) translate(-502.32, -306.57)" d="M 546.1 131 L 532.8000000000001 209.6 C 532.8000000000001 209.6 482.30000000000007 290.4 462.70000000000005 294.7 C 388.40000000000003 310.8 396.20000000000005 405.29999999999995 407.70000000000005 460.29999999999995 C 412.20000000000005 481.79999999999995 435.1 493.9 455.40000000000003 485.4 L 481.20000000000005 474.7 L 562.2 441 L 551.8000000000001 409 L 582.0000000000001 391.8 L 538.2000000000002 317.6 L 587.0000000000001 250.20000000000002 C 593.1000000000001 241.8 596.7000000000002 231.9 597.4000000000001 221.60000000000002 L 604.3000000000001 125.00000000000003 L 546.1 131.00000000000003 z" stroke-linecap="round" />
</clipPath>
<path style="stroke: none; stroke-width: 1; stroke-dasharray: none; stroke-linecap: butt; stroke-dashoffset: 0; stroke-linejoin: miter; stroke-miterlimit: 4; fill: rgb(67,47,198); fill-rule: nonzero; opacity: 1;" vector-effect="non-scaling-stroke"  transform=" translate(-421.25, -255.25)" d="M 437.9 256.6 C 437.2 265.8 429.09999999999997 272.6 419.9 271.90000000000003 C 410.7 271.20000000000005 403.9 263.1 404.59999999999997 253.90000000000003 C 405.29999999999995 244.70000000000005 413.4 237.90000000000003 422.59999999999997 238.60000000000002 C 431.79999999999995 239.3 438.59999999999997 247.40000000000003 437.9 256.6 z" stroke-linecap="round" />
</g>
<g transform="matrix(1 0 0 1 527.63 347.35)" clip-path="url(#CLIPPATH_85)"  >
<clipPath id="CLIPPATH_85" >
	<path transform="matrix(1 0 0 1 6.16 138.72) translate(-502.32, -306.57)" d="M 546.1 131 L 532.8000000000001 209.6 C 532.8000000000001 209.6 482.30000000000007 290.4 462.70000000000005 294.7 C 388.40000000000003 310.8 396.20000000000005 405.29999999999995 407.70000000000005 460.29999999999995 C 412.20000000000005 481.79999999999995 435.1 493.9 455.40000000000003 485.4 L 481.20000000000005 474.7 L 562.2 441 L 551.8000000000001 409 L 582.0000000000001 391.8 L 538.2000000000002 317.6 L 587.0000000000001 250.20000000000002 C 593.1000000000001 241.8 596.7000000000002 231.9 597.4000000000001 221.60000000000002 L 604.3000000000001 125.00000000000003 L 546.1 131.00000000000003 z" stroke-linecap="round" />
</clipPath>
<path style="stroke: none; stroke-width: 1; stroke-dasharray: none; stroke-linecap: butt; stroke-dashoffset: 0; stroke-linejoin: miter; stroke-miterlimit: 4; fill: rgb(67,47,198); fill-rule: nonzero; opacity: 1;" vector-effect="non-scaling-stroke"  transform=" translate(-496.16, -167.85)" d="M 512.8 169.2 C 512.0999999999999 178.39999999999998 503.99999999999994 185.2 494.79999999999995 184.5 C 485.59999999999997 183.8 478.79999999999995 175.7 479.49999999999994 166.5 C 480.19999999999993 157.3 488.29999999999995 150.5 497.49999999999994 151.2 C 506.69999999999993 152 513.5999999999999 160 512.8 169.2 z" stroke-linecap="round" />
</g>
<g transform="matrix(1 0 0 1 594.82 352.85)" clip-path="url(#CLIPPATH_86)"  >
<clipPath id="CLIPPATH_86" >
	<path transform="matrix(1 0 0 1 -61.04 133.22) translate(-502.32, -306.57)" d="M 546.1 131 L 532.8000000000001 209.6 C 532.8000000000001 209.6 482.30000000000007 290.4 462.70000000000005 294.7 C 388.40000000000003 310.8 396.20000000000005 405.29999999999995 407.70000000000005 460.29999999999995 C 412.20000000000005 481.79999999999995 435.1 493.9 455.40000000000003 485.4 L 481.20000000000005 474.7 L 562.2 441 L 551.8000000000001 409 L 582.0000000000001 391.8 L 538.2000000000002 317.6 L 587.0000000000001 250.20000000000002 C 593.1000000000001 241.8 596.7000000000002 231.9 597.4000000000001 221.60000000000002 L 604.3000000000001 125.00000000000003 L 546.1 131.00000000000003 z" stroke-linecap="round" />
</clipPath>
<path style="stroke: none; stroke-width: 1; stroke-dasharray: none; stroke-linecap: butt; stroke-dashoffset: 0; stroke-linejoin: miter; stroke-miterlimit: 4; fill: rgb(67,47,198); fill-rule: nonzero; opacity: 1;" vector-effect="non-scaling-stroke"  transform=" translate(-563.35, -173.35)" d="M 580 174.7 C 579.3 183.89999999999998 571.2 190.7 562 190 C 552.8 189.3 546 181.2 546.7 172 C 547.4000000000001 162.8 555.5 156 564.7 156.7 C 573.9000000000001 157.39999999999998 580.7 165.5 580 174.7 z" stroke-linecap="round" />
</g>
<g transform="matrix(1 0 0 1 460.52 341.95)" clip-path="url(#CLIPPATH_87)"  >
<clipPath id="CLIPPATH_87" >
	<path transform="matrix(1 0 0 1 73.26 144.12) translate(-502.32, -306.57)" d="M 546.1 131 L 532.8000000000001 209.6 C 532.8000000000001 209.6 482.30000000000007 290.4 462.70000000000005 294.7 C 388.40000000000003 310.8 396.20000000000005 405.29999999999995 407.70000000000005 460.29999999999995 C 412.20000000000005 481.79999999999995 435.1 493.9 455.40000000000003 485.4 L 481.20000000000005 474.7 L 562.2 441 L 551.8000000000001 409 L 582.0000000000001 391.8 L 538.2000000000002 317.6 L 587.0000000000001 250.20000000000002 C 593.1000000000001 241.8 596.7000000000002 231.9 597.4000000000001 221.60000000000002 L 604.3000000000001 125.00000000000003 L 546.1 131.00000000000003 z" stroke-linecap="round" />
</clipPath>
<path style="stroke: none; stroke-width: 1; stroke-dasharray: none; stroke-linecap: butt; stroke-dashoffset: 0; stroke-linejoin: miter; stroke-miterlimit: 4; fill: rgb(67,47,198); fill-rule: nonzero; opacity: 1;" vector-effect="non-scaling-stroke"  transform=" translate(-429.05, -162.45)" d="M 445.7 163.8 C 445 173 436.9 179.8 427.7 179.10000000000002 C 418.5 178.40000000000003 411.7 170.3 412.4 161.10000000000002 C 413.09999999999997 151.90000000000003 421.2 145.10000000000002 430.4 145.8 C 439.59999999999997 146.5 446.4 154.60000000000002 445.7 163.8 z" stroke-linecap="round" />
</g>
<g transform="matrix(1 0 0 1 549.73 489.35)" clip-path="url(#CLIPPATH_88)"  >
<clipPath id="CLIPPATH_88" >
	<path transform="matrix(1 0 0 1 -15.94 -3.28) translate(-502.32, -306.57)" d="M 546.1 131 L 532.8000000000001 209.6 C 532.8000000000001 209.6 482.30000000000007 290.4 462.70000000000005 294.7 C 388.40000000000003 310.8 396.20000000000005 405.29999999999995 407.70000000000005 460.29999999999995 C 412.20000000000005 481.79999999999995 435.1 493.9 455.40000000000003 485.4 L 481.20000000000005 474.7 L 562.2 441 L 551.8000000000001 409 L 582.0000000000001 391.8 L 538.2000000000002 317.6 L 587.0000000000001 250.20000000000002 C 593.1000000000001 241.8 596.7000000000002 231.9 597.4000000000001 221.60000000000002 L 604.3000000000001 125.00000000000003 L 546.1 131.00000000000003 z" stroke-linecap="round" />
</clipPath>
<path style="stroke: none; stroke-width: 1; stroke-dasharray: none; stroke-linecap: butt; stroke-dashoffset: 0; stroke-linejoin: miter; stroke-miterlimit: 4; fill: rgb(67,47,198); fill-rule: nonzero; opacity: 1;" vector-effect="non-scaling-stroke"  transform=" translate(-518.26, -309.85)" d="M 534.9 311.2 C 534.1999999999999 320.4 526.1 327.2 516.9 326.5 C 507.69999999999993 325.8 500.9 317.7 501.59999999999997 308.5 C 502.29999999999995 299.3 510.4 292.5 519.5999999999999 293.2 C 528.8 294 535.6999999999999 302 534.8999999999999 311.2 z" stroke-linecap="round" />
</g>
<g transform="matrix(1 0 0 1 616.92 494.85)" clip-path="url(#CLIPPATH_89)"  >
<clipPath id="CLIPPATH_89" >
	<path transform="matrix(1 0 0 1 -83.14 -8.78) translate(-502.32, -306.57)" d="M 546.1 131 L 532.8000000000001 209.6 C 532.8000000000001 209.6 482.30000000000007 290.4 462.70000000000005 294.7 C 388.40000000000003 310.8 396.20000000000005 405.29999999999995 407.70000000000005 460.29999999999995 C 412.20000000000005 481.79999999999995 435.1 493.9 455.40000000000003 485.4 L 481.20000000000005 474.7 L 562.2 441 L 551.8000000000001 409 L 582.0000000000001 391.8 L 538.2000000000002 317.6 L 587.0000000000001 250.20000000000002 C 593.1000000000001 241.8 596.7000000000002 231.9 597.4000000000001 221.60000000000002 L 604.3000000000001 125.00000000000003 L 546.1 131.00000000000003 z" stroke-linecap="round" />
</clipPath>
<path style="stroke: none; stroke-width: 1; stroke-dasharray: none; stroke-linecap: butt; stroke-dashoffset: 0; stroke-linejoin: miter; stroke-miterlimit: 4; fill: rgb(67,47,198); fill-rule: nonzero; opacity: 1;" vector-effect="non-scaling-stroke"  transform=" translate(-585.45, -315.35)" d="M 602.1 316.7 C 601.4 325.9 593.3000000000001 332.7 584.1 332 C 574.9 331.3 568.1 323.2 568.8000000000001 314 C 569.5000000000001 304.8 577.6 298 586.8000000000001 298.7 C 596.0000000000001 299.4 602.8000000000001 307.5 602.1 316.7 z" stroke-linecap="round" />
</g>
<g transform="matrix(1 0 0 1 415.43 478.45)" clip-path="url(#CLIPPATH_90)"  >
<clipPath id="CLIPPATH_90" >
	<path transform="matrix(1 0 0 1 118.36 7.62) translate(-502.32, -306.57)" d="M 546.1 131 L 532.8000000000001 209.6 C 532.8000000000001 209.6 482.30000000000007 290.4 462.70000000000005 294.7 C 388.40000000000003 310.8 396.20000000000005 405.29999999999995 407.70000000000005 460.29999999999995 C 412.20000000000005 481.79999999999995 435.1 493.9 455.40000000000003 485.4 L 481.20000000000005 474.7 L 562.2 441 L 551.8000000000001 409 L 582.0000000000001 391.8 L 538.2000000000002 317.6 L 587.0000000000001 250.20000000000002 C 593.1000000000001 241.8 596.7000000000002 231.9 597.4000000000001 221.60000000000002 L 604.3000000000001 125.00000000000003 L 546.1 131.00000000000003 z" stroke-linecap="round" />
</clipPath>
<path style="stroke: none; stroke-width: 1; stroke-dasharray: none; stroke-linecap: butt; stroke-dashoffset: 0; stroke-linejoin: miter; stroke-miterlimit: 4; fill: rgb(67,47,198); fill-rule: nonzero; opacity: 1;" vector-effect="non-scaling-stroke"  transform=" translate(-383.96, -298.95)" d="M 400.6 300.3 C 399.90000000000003 309.5 391.8 316.3 382.6 315.6 C 373.40000000000003 314.90000000000003 366.6 306.8 367.3 297.6 C 368 288.40000000000003 376.1 281.6 385.3 282.3 C 394.5 283 401.40000000000003 291.1 400.6 300.3 z" stroke-linecap="round" />
</g>
<g transform="matrix(1 0 0 1 498.22 449.04)"  >
<path style="stroke: none; stroke-width: 1; stroke-dasharray: none; stroke-linecap: butt; stroke-dashoffset: 0; stroke-linejoin: miter; stroke-miterlimit: 4; fill: rgb(61,21,95); fill-rule: nonzero; opacity: 1;" vector-effect="non-scaling-stroke"  transform=" translate(-466.75, -269.54)" d="M 463 319.3 C 462.3 319.3 461.6 319.3 460.9 319.2 C 451.29999999999995 318.09999999999997 444.5 309.4 445.59999999999997 299.8 L 453.2 235.20000000000002 C 454.3 225.60000000000002 463 218.8 472.59999999999997 219.9 C 482.2 221 488.99999999999994 229.70000000000002 487.9 239.3 L 480.29999999999995 304 C 479.19999999999993 312.8 471.69999999999993 319.3 462.99999999999994 319.3 z" stroke-linecap="round" />
</g>
<g transform="matrix(1 0 0 1 583.87 623.35)"  >
<path style="stroke: rgb(255,255,255); stroke-width: 1.5; stroke-dasharray: none; stroke-linecap: square; stroke-dashoffset: 0; stroke-linejoin: miter; stroke-miterlimit: 50; fill: none; fill-rule: nonzero; opacity: 1;" vector-effect="non-scaling-stroke"  transform=" translate(-552.4, -443.85)" d="M 646.1 481 L 646.1 481 L 633.4 479.7 L 633.4 479.7 L 637.6 463.7 L 637.6 463.7 M 458.70000000000005 409.59999999999997 L 470.1 406.7" stroke-linecap="round" />
</g>
<g transform="matrix(1 0 0 1 608.17 578.51)"  >
<path style="stroke: none; stroke-width: 1; stroke-dasharray: none; stroke-linecap: butt; stroke-dashoffset: 0; stroke-linejoin: miter; stroke-miterlimit: 4; fill: rgb(201,120,75); fill-rule: nonzero; opacity: 1;" vector-effect="non-scaling-stroke"  transform=" translate(-576.7, -399.01)" d="M 554.1 417 C 554.1 416.9 577.9 395.2 577.9 395.2 L 606.1 389.3 C 606.1 389.3 582.9 367 547.3000000000001 395.6 L 554.1 417 z" stroke-linecap="round" />
</g>
<g transform="matrix(1 0 0 1 601.22 549.65)"  >
<path style="stroke: rgb(255,255,255); stroke-width: 1.5; stroke-dasharray: none; stroke-linecap: square; stroke-dashoffset: 0; stroke-linejoin: miter; stroke-miterlimit: 50; fill: none; fill-rule: nonzero; opacity: 1;" vector-effect="non-scaling-stroke"  transform=" translate(-569.75, -370.15)" d="M 677.9 322.8 L 677.9 322.8 L 679.6999999999999 337.5 L 679.6999999999999 337.5 L 660.8 337.2 L 660.8 337.2 M 459.79999999999995 361.7 L 459.79999999999995 361.7 L 470.09999999999997 406.9 L 470.09999999999997 406.9 L 544.1999999999999 385.5 L 544.1999999999999 385.5 L 554.5999999999999 417.5 L 554.5999999999999 417.5 L 578.6999999999999 393.9 L 578.6999999999999 393.9 L 644.4999999999999 385.2 L 644.4999999999999 385.2 C 644.4999999999999 385.2 663.4999999999999 382.2 672.8999999999999 388.2" stroke-linecap="round" />
</g>
<g transform="matrix(1 0 0 1 577.37 545.45)"  >
<path style="stroke: none; stroke-width: 1; stroke-dasharray: none; stroke-linecap: butt; stroke-dashoffset: 0; stroke-linejoin: miter; stroke-miterlimit: 4; fill: rgb(67,47,198); fill-rule: nonzero; opacity: 1;" vector-effect="non-scaling-stroke"  transform=" translate(-545.9, -365.95)" d="M 400.3 311.2 L 400.3 463.2 L 93.4 463.2 L 93.4 344.8 L 127 311.2 L 400.3 311.2 z M 998.4000000000001 319.3 L 998.4000000000001 438.5 L 759.4000000000001 438.5 L 725.8 405 L 725.8 319.4 L 998.4 319.29999999999995 z M 331.5 629.5 L 637.9 629.5 L 637.9 488.2 L 297.9 488.2 L 297.9 595.8 L 331.5 629.5 z M 900.8 203 L 841 203 L 841 102.4 L 900.8 102.4 L 900.8 203 z" stroke-linecap="round" />
</g>
<g transform="matrix(1 0 0 1 364.8 260.71)"  >
<path style="stroke: none; stroke-width: 1; stroke-dasharray: none; stroke-linecap: butt; stroke-dashoffset: 0; stroke-linejoin: miter; stroke-miterlimit: 4; fill: rgb(204,243,129); fill-rule: nonzero; opacity: 1;" vector-effect="non-scaling-stroke"  transform=" translate(-333.32, -81.21)" d="M 333.3 102.2 C 317 102.2 306.90000000000003 84.5 315.3 70.5 C 323.40000000000003 56.8 343.2 56.8 351.40000000000003 70.5 C 359.70000000000005 84.5 349.6 102.2 333.3 102.2 z" stroke-linecap="round" />
</g>
<g transform="matrix(1 0 0 1 523.27 288.7)"  >
<path style="stroke: none; stroke-width: 1; stroke-dasharray: none; stroke-linecap: butt; stroke-dashoffset: 0; stroke-linejoin: miter; stroke-miterlimit: 4; fill: rgb(67,47,198); fill-rule: nonzero; opacity: 1;" vector-effect="non-scaling-stroke"  transform=" translate(-491.8, -109.2)" d="M 505.3 151.1 C 505.3 158.5 499.3 164.6 491.8 164.6 C 484.3 164.6 478.3 158.6 478.3 151.1 C 478.3 143.7 484.3 137.6 491.8 137.6 C 499.3 137.7 505.3 143.7 505.3 151.1 z M 501.2 127.89999999999999 L 482.5 127.89999999999999 L 482.5 53.8 L 501.2 53.8 L 501.2 127.89999999999999 z" stroke-linecap="round" />
</g>
<g transform="matrix(1 0 0 1 605.24 454.95)"  >
<path style="stroke: none; stroke-width: 1; stroke-dasharray: none; stroke-linecap: butt; stroke-dashoffset: 0; stroke-linejoin: miter; stroke-miterlimit: 4; fill: rgb(204,243,129); fill-rule: nonzero; opacity: 1;" vector-effect="non-scaling-stroke"  transform=" translate(-565.5, -275.45)" d="M 251.5 432.7 C 251.5 435.3 249.5 437.4 246.9 437.4 C 244.3 437.4 242.20000000000002 435.4 242.20000000000002 432.79999999999995 L 242.20000000000002 432.69999999999993 C 242.20000000000002 430.0999999999999 244.4 428.0999999999999 246.9 428.0999999999999 C 249.4 428.19999999999993 251.4 430.19999999999993 251.5 432.69999999999993 z M 888.8 144.09999999999997 C 888.8 146.39999999999998 886.9 148.29999999999995 884.5999999999999 148.29999999999995 C 882.2999999999998 148.29999999999995 880.3999999999999 146.39999999999995 880.3999999999999 144.09999999999997 C 880.3999999999999 141.79999999999998 882.2999999999998 139.89999999999998 884.5999999999999 139.89999999999998 C 886.8999999999999 139.89999999999998 888.8 141.79999999999998 888.8 144.09999999999997 z M 887.5 136.79999999999995 L 881.6 136.79999999999995 L 881.6 113.49999999999996 L 887.5 113.49999999999996 L 887.5 136.79999999999995 z" stroke-linecap="round" />
</g>
<g transform="matrix(1 0 0 1 540 370.42)"  >
<path style="stroke: rgb(255,235,92); stroke-width: 2; stroke-dasharray: none; stroke-linecap: butt; stroke-dashoffset: 0; stroke-linejoin: miter; stroke-miterlimit: 50; fill: none; fill-rule: nonzero; opacity: 1;" vector-effect="non-scaling-stroke"  transform=" translate(-543.85, -351.65)" d="M 965.4 344.4 L 980.1999999999999 344.4 M 972.8 337 L 972.8 351.8 M 312.6 510.9 L 328.70000000000005 510.9 M 320.6 502.79999999999995 L 320.6 518.9 M 107.5 444 L 122.7 444 M 115.10000000000001 436.4 L 115.10000000000001 451.59999999999997 M 372.90000000000003 330.59999999999997 L 390.6 330.59999999999997 M 381.70000000000005 321.79999999999995 L 381.70000000000005 339.49999999999994 M 715.4000000000001 206.19999999999993 L 727.4000000000001 206.19999999999993 M 721.4 200.2 L 721.4 212.2 M 848 189.6 L 858.5 189.6 M 853.3 184.4 L 853.3 194.9" stroke-linecap="round" />
</g>
<g transform="matrix(1 0 0 1 918.57 783.55)"  >
<path style="stroke: none; stroke-width: 1; stroke-dasharray: none; stroke-linecap: butt; stroke-dashoffset: 0; stroke-linejoin: miter; stroke-miterlimit: 4; fill: rgb(67,47,198); fill-rule: nonzero; opacity: 1;" vector-effect="non-scaling-stroke"  transform=" translate(-887.1, -604.05)" d="M 930 639.3 L 844.2 639.3 L 844.2 568.8 L 930 568.8 L 930 639.3 z" stroke-linecap="round" />
</g>
<g transform="matrix(1 0 0 1 918.57 783.55)"  >
<path style="stroke: none; stroke-width: 1; stroke-dasharray: none; stroke-linecap: butt; stroke-dashoffset: 0; stroke-linejoin: miter; stroke-miterlimit: 4; fill: rgb(67,47,198); fill-rule: nonzero; opacity: 1;" vector-effect="non-scaling-stroke"  transform=" translate(-887.1, -604.05)" d="M 930 639.3 L 844.2 639.3 L 844.2 568.8 L 930 568.8 L 930 639.3 z" stroke-linecap="round" />
</g>
<g transform="matrix(1 0 0 1 918.57 783.6)"  >
<path style="stroke: rgb(255,235,92); stroke-width: 2; stroke-dasharray: none; stroke-linecap: butt; stroke-dashoffset: 0; stroke-linejoin: miter; stroke-miterlimit: 50; fill: none; fill-rule: nonzero; opacity: 1;" vector-effect="non-scaling-stroke"  transform=" translate(-887.1, -604.1)" d="M 879.1 604.1 L 895.1 604.1 M 887.1 596.1 L 887.1 612.1" stroke-linecap="round" />
</g>
<g transform="matrix(1 0 0 1 361.47 377.4)"  >
<path style="stroke: none; stroke-width: 1; stroke-dasharray: none; stroke-linecap: butt; stroke-dashoffset: 0; stroke-linejoin: miter; stroke-miterlimit: 4; fill: rgb(67,47,198); fill-rule: nonzero; opacity: 1;" vector-effect="non-scaling-stroke"  transform=" translate(-330, -197.9)" d="M 335.3 214.3 C 335.3 217.20000000000002 332.90000000000003 219.60000000000002 330 219.60000000000002 C 327.09999999999997 219.60000000000002 324.7 217.20000000000002 324.7 214.3 C 324.7 211.4 327.09999999999997 209 330 209 C 332.90000000000003 209 335.3 211.4 335.3 214.3 z M 333.6 205.2 L 326.3 205.2 L 326.3 176.2 L 333.6 176.2 L 333.6 205.2 z" stroke-linecap="round" />
</g>
<g transform="matrix(1 0 0 1 444.02 319.95)"  >
<path style="stroke: rgb(255,235,92); stroke-width: 2; stroke-dasharray: none; stroke-linecap: butt; stroke-dashoffset: 0; stroke-linejoin: miter; stroke-miterlimit: 50; fill: none; fill-rule: nonzero; opacity: 1;" vector-effect="non-scaling-stroke"  transform=" translate(-412.55, -140.45)" d="M 405.1 133 L 420 147.9 M 420 133 L 405.1 147.9" stroke-linecap="round" />
</g>
<g transform="matrix(1 0 0 1 506.82 479.3)"  >
<path style="stroke: none; stroke-width: 1; stroke-dasharray: none; stroke-linecap: butt; stroke-dashoffset: 0; stroke-linejoin: miter; stroke-miterlimit: 4; fill: rgb(36,39,45); fill-rule: nonzero; opacity: 1;" vector-effect="non-scaling-stroke"  transform=" translate(-475.35, -299.8)" d="M 481.1 297 L 469.6 295.6 L 480.3 304 L 481.1 297 z" stroke-linecap="round" />
</g>
<g transform="matrix(1 0 0 1 622.42 564.38)"  >
<path style="stroke: rgb(255,255,255); stroke-width: 1.5; stroke-dasharray: none; stroke-linecap: square; stroke-dashoffset: 0; stroke-linejoin: miter; stroke-miterlimit: 50; fill: none; fill-rule: nonzero; opacity: 1;" vector-effect="non-scaling-stroke"  transform=" translate(-590.95, -384.88)" d="M 575.8 381.5 C 575.8 381.5 594.3 376.6 606.0999999999999 389.2" stroke-linecap="round" />
</g>
<g transform="matrix(1 0 0 1 506.32 432.69)"  >
<path style="stroke: none; stroke-width: 1; stroke-dasharray: none; stroke-linecap: butt; stroke-dashoffset: 0; stroke-linejoin: miter; stroke-miterlimit: 4; fill: rgb(201,120,75); fill-rule: nonzero; opacity: 1;" vector-effect="non-scaling-stroke"  transform=" translate(-474.85, -253.2)" d="M 473.6 297.3 L 477.5 297.3 C 496.6 297.1 510.8 278.40000000000003 507 258.5 L 502.6 235.3 C 499.70000000000005 219.8 486.70000000000005 208.8 471.90000000000003 209.10000000000002 C 455.00000000000006 209.50000000000003 441.70000000000005 224.40000000000003 442.1 242.3 L 442.6 265.6 C 443.1 283.3 456.90000000000003 297.5 473.6 297.3 z" stroke-linecap="round" />
</g>
<g transform="matrix(1 0 0 1 517.91 436.75)"  >
<path style="stroke: rgb(37,43,45); stroke-width: 1.5; stroke-dasharray: none; stroke-linecap: round; stroke-dashoffset: 0; stroke-linejoin: round; stroke-miterlimit: 50; fill: none; fill-rule: nonzero; opacity: 1;" vector-effect="non-scaling-stroke"  transform=" translate(-486.44, -257.25)" d="M 485.8 247.2 L 485.8 247.2 L 488.90000000000003 259.8 C 489.70000000000005 263 487.8 266.3 484.50000000000006 267.1 L 483.80000000000007 267.3 L 483.80000000000007 267.3" stroke-linecap="round" />
</g>
<g transform="matrix(1 0 0 1 501.06 410.83)"  >
<path style="stroke: none; stroke-width: 1; stroke-dasharray: none; stroke-linecap: butt; stroke-dashoffset: 0; stroke-linejoin: miter; stroke-miterlimit: 4; fill: rgb(36,39,45); fill-rule: nonzero; opacity: 1;" vector-effect="non-scaling-stroke"  transform=" translate(-469.59, -231.32)" d="M 455.2 266.4 L 460 231.29999999999998 L 461.1 222.99999999999997 C 463.40000000000003 224.89999999999998 466 226.39999999999998 468.8 227.49999999999997 C 478.90000000000003 231.39999999999998 507.2 225.79999999999998 508.7 205.29999999999998 C 509.9 188.6 493.7 200.1 484.7 200.2 C 470.59999999999997 200.29999999999998 459.8 193.29999999999998 442 206 C 420.7 221.2 435.3 250.2 435.3 250.2 C 435.3 250.2 444.90000000000003 245 455.2 266.4 z" stroke-linecap="round" />
</g>
<g transform="matrix(1 0 0 1 513.92 429.49)"  >
<path style="stroke: none; stroke-width: 1; stroke-dasharray: none; stroke-linecap: butt; stroke-dashoffset: 0; stroke-linejoin: miter; stroke-miterlimit: 4; fill: rgb(36,39,45); fill-rule: nonzero; opacity: 1;" vector-effect="non-scaling-stroke"  transform=" translate(-482.45, -249.99)" d="M 469.2 252.7 C 470.09999999999997 254.29999999999998 472.09999999999997 254.89999999999998 473.8 254 C 475.40000000000003 253.1 476 251.1 475.1 249.4 C 474.20000000000005 247.8 472.1 247.3 470.5 248.20000000000002 C 468.9 249.20000000000002 468.3 251.10000000000002 469.2 252.70000000000002 z M 489.8 250.5 C 490.7 252.1 492.7 252.7 494.40000000000003 251.8 C 496.00000000000006 250.9 496.6 248.9 495.70000000000005 247.20000000000002 C 494.80000000000007 245.60000000000002 492.70000000000005 245.10000000000002 491.1 246.00000000000003 C 489.5 247.00000000000003 488.90000000000003 249.00000000000003 489.8 250.50000000000003 z" stroke-linecap="round" />
</g>
<g transform="matrix(1 0 0 1 504.97 457.05)"  >
<path style="stroke: rgb(37,43,45); stroke-width: 1.5; stroke-dasharray: none; stroke-linecap: round; stroke-dashoffset: 0; stroke-linejoin: round; stroke-miterlimit: 50; fill: none; fill-rule: nonzero; opacity: 1;" vector-effect="non-scaling-stroke"  transform=" translate(-473.5, -277.55)" d="M 469.1 273.9 C 469.1 273.9 470.1 280.79999999999995 477.90000000000003 281.2" stroke-linecap="round" />
</g>
<g transform="matrix(1 0 0 1 477.62 443.67)"  >
<path style="stroke: none; stroke-width: 1; stroke-dasharray: none; stroke-linecap: butt; stroke-dashoffset: 0; stroke-linejoin: miter; stroke-miterlimit: 4; fill: rgb(201,120,75); fill-rule: nonzero; opacity: 1;" vector-effect="non-scaling-stroke"  transform=" translate(-446.15, -264.17)" d="M 457.2 278 C 462.3 273.9 463.2 266.3 459.09999999999997 261.2 L 451.9 252.2 C 447.79999999999995 247.1 440.2 246.2 435.09999999999997 250.29999999999998 C 429.99999999999994 254.39999999999998 429.09999999999997 262 433.2 267.09999999999997 L 440.4 276.09999999999997 C 444.5 281.29999999999995 452.09999999999997 282.09999999999997 457.2 277.99999999999994 z" stroke-linecap="round" />
</g>
<g transform="matrix(1 0 0 1 474.27 442.65)"  >
<path style="stroke: rgb(37,43,45); stroke-width: 1.5; stroke-dasharray: none; stroke-linecap: round; stroke-dashoffset: 0; stroke-linejoin: round; stroke-miterlimit: 50; fill: none; fill-rule: nonzero; opacity: 1;" vector-effect="non-scaling-stroke"  transform=" translate(-442.8, -263.15)" d="M 439.2 260.2 L 446.4 266.09999999999997" stroke-linecap="round" />
</g>
<g transform="matrix(1 0 0 1 459.99 651.92)"  >
<path style="stroke: none; stroke-width: 1; stroke-dasharray: none; stroke-linecap: butt; stroke-dashoffset: 0; stroke-linejoin: miter; stroke-miterlimit: 4; fill: rgb(61,21,95); fill-rule: nonzero; opacity: 1;" vector-effect="non-scaling-stroke"  transform=" translate(-426.45, -470.35)" d="M 127 311.2 L 127 344.8 L 93.4 344.8 L 127 311.2 z M 331.5 629.5 L 297.9 595.9 L 331.5 595.9 L 331.5 629.5 z M 759.5 405 L 759.5 438.6 L 725.8 405 L 759.5 405 z" stroke-linecap="round" />
</g>
<g transform="matrix(1 0 0 1 755.27 222.2)"  >
<path style="stroke: none; stroke-width: 1; stroke-dasharray: none; stroke-linecap: butt; stroke-dashoffset: 0; stroke-linejoin: miter; stroke-miterlimit: 4; fill: rgb(61,21,95); fill-rule: nonzero; opacity: 1;" vector-effect="non-scaling-stroke"  transform=" translate(-723.8, -42.7)" d="M 707 25.9 L 740.6 59.5 L 707 59.5 L 707 25.9 z" stroke-linecap="round" />
</g>
<g transform="matrix(1 0 0 1 282.92 397.6)"  >
<path style="stroke: none; stroke-width: 1; stroke-dasharray: none; stroke-linecap: butt; stroke-dashoffset: 0; stroke-linejoin: miter; stroke-miterlimit: 4; fill: rgb(67,47,198); fill-rule: nonzero; opacity: 1;" vector-effect="non-scaling-stroke"  transform=" translate(-251.45, -218.1)" d="M 288.5 278.5 L 214.4 278.5 L 214.4 172.3 L 231.3 157.70000000000002 L 288.5 157.70000000000002 z" stroke-linecap="round" />
</g>
<g transform="matrix(1 0 0 1 254.32 344.5)"  >
<path style="stroke: none; stroke-width: 1; stroke-dasharray: none; stroke-linecap: butt; stroke-dashoffset: 0; stroke-linejoin: miter; stroke-miterlimit: 4; fill: rgb(61,21,95); fill-rule: nonzero; opacity: 1;" vector-effect="non-scaling-stroke"  transform=" translate(-222.85, -165)" d="M 231.3 172.3 L 214.4 172.3 L 231.3 157.70000000000002 z" stroke-linecap="round" />
</g>
<g transform="matrix(1 0 0 1 308.87 351)"  >
<path style="stroke: rgb(255,235,92); stroke-width: 1.5; stroke-dasharray: none; stroke-linecap: butt; stroke-dashoffset: 0; stroke-linejoin: miter; stroke-miterlimit: 10; fill: none; fill-rule: nonzero; opacity: 1;" vector-effect="non-scaling-stroke"  transform=" translate(-277.4, -171.5)" d="M 273.4 171.5 L 281.4 171.5 M 277.4 167.5 L 277.4 175.5" stroke-linecap="round" />
</g>
<g transform="matrix(0 -1 1 0 286.61 394.3)" style="" id="eac693e0-df31-4e9f-b8d3-fbd20d20de29"  >
		<text xml:space="preserve" font-family="Lato" font-size="20" font-style="normal" font-weight="700" style="stroke: none; stroke-width: 1; stroke-dasharray: none; stroke-linecap: butt; stroke-dashoffset: 0; stroke-linejoin: miter; stroke-miterlimit: 4; fill: rgb(189,255,141); fill-rule: nonzero; opacity: 1; white-space: pre;" ><tspan x="-51.66" y="6.28" >C</tspan><tspan x="-37.21" y="6.28" >R</tspan><tspan x="-23.06" y="6.28" >A</tspan><tspan x="-7.82" y="6.28" >F</tspan><tspan x="4.47" y="6.28" >T</tspan><tspan x="16.64" y="6.28" >O</tspan><tspan x="33.67" y="6.28" >R</tspan><tspan x="46.68" y="6.28" style="white-space: pre; "> </tspan></text>
</g>
<g transform="matrix(1 0 0 1 282.43 564.82)" style="" id="0a202c05-4324-48ea-8b7f-b9f8f593e7a7"  >
		<text xml:space="preserve" font-family="Lato" font-size="40" font-style="normal" font-weight="400" style="stroke: none; stroke-width: 1; stroke-dasharray: none; stroke-linecap: butt; stroke-dashoffset: 0; stroke-linejoin: miter; stroke-miterlimit: 4; fill: rgb(189,255,141); fill-rule: nonzero; opacity: 1; white-space: pre;" ><tspan x="-62.93" y="12.57" >REACT</tspan></text>
</g>
<g transform="matrix(0 0 0 0 0 0)"  >
<g style=""   >
</g>
</g>
<g transform="matrix(1 0 0 1 505.34 739.04)" style="" id="25c46fa9-55da-4285-b6ef-ac7555453a27"  >
		<text xml:space="preserve" font-family="Lato" font-size="40" font-style="normal" font-weight="400" style="stroke: none; stroke-width: 1; stroke-dasharray: none; stroke-linecap: butt; stroke-dashoffset: 0; stroke-linejoin: miter; stroke-miterlimit: 4; fill: rgb(255,246,0); fill-rule: nonzero; opacity: 1; white-space: pre;" ><tspan x="-117.13" y="12.57" >JAVA SCRIPT</tspan></text>
</g>
<g transform="matrix(1 0 0 1 892.08 557.04)" style="" id="b332988c-33e9-4c71-ad76-cf5add35159f"  >
		<text xml:space="preserve" font-family="Lato" font-size="40" font-style="normal" font-weight="400" style="stroke: none; stroke-width: 1; stroke-dasharray: none; stroke-linecap: butt; stroke-dashoffset: 0; stroke-linejoin: miter; stroke-miterlimit: 4; fill: rgb(247,247,247); fill-rule: nonzero; opacity: 1; white-space: pre;" ><tspan x="-95.04" y="12.57" style="white-space: pre; ">Developer </tspan></text>
</g>
<g transform="matrix(0 -1 1 0 693.72 291.97)" style="" id="90dbe265-8560-4644-a472-d8fdc3b3cdb9"  >
		<text xml:space="preserve" font-family="Lato" font-size="33" font-style="normal" font-weight="400" style="stroke: none; stroke-width: 1; stroke-dasharray: none; stroke-linecap: butt; stroke-dashoffset: 0; stroke-linejoin: miter; stroke-miterlimit: 4; fill: rgb(255,255,255); fill-rule: nonzero; opacity: 1; white-space: pre;" ><tspan x="-70.11" y="10.37" style="white-space: pre; ">SKILLED  </tspan></text>
</g>
</svg>