<svg xmlns="http://www.w3.org/2000/svg" version="1.1" xmlns:xlink="http://www.w3.org/1999/xlink" xmlns:svgjs="http://svgjs.dev/svgjs" viewBox="0 0 800 800"><defs><linearGradient x1="50%" y1="0%" x2="50%" y2="100%" id="wwwhirl-grad"><stop stop-color="hsl(206, 75%, 49%)" stop-opacity="1" offset="45%"></stop><stop stop-color="hsl(331, 90%, 56%)" stop-opacity="1" offset="100%"></stop></linearGradient></defs><g stroke-width="2" stroke="url(#wwwhirl-grad)" fill="none" stroke-linecap="round"><path d="M37.00000251770027 411.9761282885785C50.75000289917 406.6136281398053 75.50000358581553 376.95487731697506 103.000004348755 386.23612757446716C130.50000511169446 395.5173778319592 141.5000054168703 465.6011297763105 169.00000617980973 456.5261295245404C196.5000069427492 447.4511292727704 207.50000724792503 343.9136264003033 235.00000801086446 342.676126365971C262.500008773804 341.4386263316387 273.5000090789798 443.57362916519594 301.0000098419193 450.5861293597455C328.50001060485874 457.5986295542951 339.5000109100345 375.92362728836486 367.000011672974 376.33612729980894C394.50001243591345 376.748627311253 405.5000127410893 450.29737935173466 433.0000135040287 452.56612941467716C460.5000142669682 454.83487947761967 471.50001457214404 390.1136276820416 499.0000153350834 387.22612760193294C526.5000160980228 384.3386275218243 537.5000164031987 443.03737915031866 565.0000171661382 438.70612903015564C592.5000179290777 434.3748789099927 603.5000182342535 368.29237707664913 631.000018997193 366.4361270251507C658.5000197601325 364.5798769736523 669.5000200653083 424.02112862274595 697.0000208282477 429.79612878296325C724.5000215911871 435.57112894318055 749.2500222778326 401.5811280001874 763.0000226593024 394.1561277941937 " transform="rotate(99, 400, 400)"></path><path d="M48.00000244140632 411.6132246734846C61.33333614464971 406.41322452921963 85.3333368104878 377.6532237313237 112.00000421697456 386.65322398101296C138.6666716234613 395.6532242307022 149.33333858605602 463.6132261161338 176.00000599254278 454.8132258719931C202.66667339902952 446.0132256278525 213.33334036162427 345.6132228424298 240.000007768111 344.4132228091379C266.6666751745978 343.213222775846 277.3333421371925 442.2532255235378 304.00000954367925 449.053225712192C330.66667695016605 455.8532259008461 341.3333439127607 376.6532237035804 368.00001131924745 377.0532237146777C394.66667872573424 377.45322372577505 405.33334568832896 448.77322570442385 432.00001309481576 450.973225765459C458.66668050130244 453.17322582649416 469.3333474638972 390.41322408532756 496.0000148703839 387.61322400764647C522.6666822768707 384.8132239299654 533.3333492394653 441.7332255091114 560.0000166459522 437.5332253925897C586.666684052439 433.333225276068 597.3333510150337 369.25322349828036 624.0000184215204 367.4532234483425C650.6666858280073 365.65322339840463 661.3333527906019 423.2932249975257 688.0000201970887 428.89322515288796C714.6666876035754 434.4932253082502 738.6666882694134 401.53322439383254 752.0000219726569 394.33322419408114 " transform="rotate(96, 400, 400)"></path><path d="M59.00000236511238 411.2503134289961C71.9166693901294 406.2128132892394 95.16667003516005 378.35156251627774 121.00000408519412 387.0703127581642C146.83333813522813 395.7890630000507 157.1666717552418 461.6253148265625 183.0000058052758 453.10031459005125C208.83333985530987 444.57531435354 219.1666734753235 347.3128116551618 245.00000752535757 346.1503116229103C270.8333415753916 344.98781159065874 281.1666751954052 440.9328142524852 307.0000092454393 447.5203144352439C332.83334329547336 454.1078146180026 343.16667691548696 377.38281248940143 369.00001096552097 377.77031250015193C394.83334501555504 378.1578125109025 405.1666786355687 447.24906442771857 431.0000126856027 449.3803144868464C456.8333467356368 451.5115645459741 467.16668035565044 390.712812859219 493.0000144056845 388.00031278396546C518.8333484557185 385.28781270871184 529.1666820757321 440.42906423850957 555.0000161257661 436.3603141256292C580.8333501758003 432.29156401274884 591.1666837958139 370.214062290517 617.000017845848 368.4703122421397C642.8333518958821 366.7265621937624 653.1666855158957 422.565313742911 679.0000195659296 427.99031389341815C704.8333536159636 433.4153140439253 728.0833542609943 401.4853131580832 741.0000212860114 394.51031296457404 " transform="rotate(93, 400, 400)"></path><path d="M70.00000228881842 410.8873907404158C82.50000263560909 406.01239060516747 105.00000325983231 379.04988985714 130.00000395341365 387.4873900912237C155.00000464699497 395.9248903253074 165.00000492442751 459.6373920928994 190.00000561800886 451.38739186401756C215.0000063115902 443.1373916351357 225.00000658902275 349.01238902380203 250.00000728260406 347.88738899259084C275.00000797618543 346.76238896137966 285.000008253618 439.6123915373408 310.0000089471993 445.987391714204C335.00000964078066 452.36239189106726 345.00000991821315 378.11238983113066 370.0000106117945 378.4873898415344C395.00001130537584 378.86238985193813 405.0000115828084 445.7248917069214 430.0000122763897 447.7873917641419C455.000012969971 449.84989182136235 465.0000132474036 391.0123901890187 490.00001394098496 388.3873901161926C515.0000146345662 385.76239004336657 525.0000149119987 439.12489152381596 550.0000156055801 435.1873914145769C575.0000162991615 431.2498913053378 585.000016576594 371.17488963866185 610.0000172701755 369.4873895918451C635.0000179637568 367.79988954502835 645.0000182411893 421.8373910442044 670.0000189347705 427.08739118985653C695.0000196283519 432.33739133550864 717.5000202525752 401.4373904782421 730.0000205993658 394.6873902909751 " transform="rotate(90, 400, 400)"></path><path d="M81.00000221252448 410.5244794959273C93.08333588108879 405.81197936518726 114.83333648450457 379.74822864209403 139.0000038216332 387.90447886837495C163.1666711587618 396.06072909465587 172.83333809361326 457.6494808033282 197.0000054307419 449.6744805820757C221.16667276787052 441.69948036082326 230.833339702722 350.711977836534 255.00000703985063 349.6244778063632C279.16667437697924 348.53697777619243 288.83334131183074 438.29198026628814 313.00000864895935 444.45448043725594C337.16667598608797 450.61698060822374 346.8333429209394 378.84197861695174 371.000010258068 379.20447862700865C395.16667759519663 379.5669786370656 404.8333445300481 444.2007304302161 429.00001186717674 446.1944804855292C453.16667920430535 448.1882305408423 462.8333461391569 391.3119789629101 487.00001347628546 388.7744788925116C511.1666808134141 386.2369788221131 520.8333477482655 437.82073025321415 545.0000150853941 434.0144801476164C569.1666824225229 430.2082300420186 578.8333493573742 372.1357284308985 603.000016694503 370.50447838564236C627.1666840316316 368.87322834038616 636.8333509664831 421.10947978958967 661.0000183036116 426.1844799303867C685.1666856407402 431.2594800711837 706.9166862441559 401.3894792424927 719.0000199127203 394.864479061468 " transform="rotate(87, 400, 400)"></path><path d="M92.00000213623053 410.16156062204436C103.6666691265685 405.6115604958125 124.66666970917683 380.44655979765355 148.00000368985275 388.3215600161317C171.33333767052864 396.1965602346098 180.666671262799 455.66156188436236 204.00000524347493 447.96156167073934C227.33333922415085 440.2615614571163 236.66667281642125 352.41155901987145 260.00000679709717 351.36155899074106C283.33334077777306 350.3115589616106 292.66667437004344 436.97156136584096 316.0000083507193 442.9215615309133C339.3333423313953 448.8715616959857 348.66667592366565 379.5715597733782 372.00000990434154 379.92155978308836C395.3333438850174 380.2715597927985 404.6666774772878 442.6765615241162 428.00001145796375 444.60156157752203C451.3333454386397 446.52656163092774 460.6666790309101 391.611560107407 484.000013011586 389.16156003943604C507.33334699226185 386.711559971465 516.6666805845323 436.5165613532178 540.0000145652082 432.84156125126134C563.3333485458841 429.16656114930487 572.6666821381544 373.09655959374066 596.0000161188304 371.521559550045C619.3333500995063 369.9465595063494 628.6666836917767 420.3815609055804 652.0000176724526 425.2815610415223C675.3333516531285 430.1815611774643 696.3333522357368 401.34156037734886 708.0000192260748 395.04156020256636 " transform="rotate(84, 400, 400)"></path><path d="M103.00000205993659 409.7986570069504C114.25000237204819 405.4111568852269 134.5000029338491 381.1449062120021 157.00000355807228 388.7386564226775C179.50000418229547 396.33240663335283 188.5000044319848 453.67365822418566 211.00000505620795 446.248658018192C233.50000568043117 438.82365781219835 242.50000593012047 354.11115546199795 265.0000065543437 353.09865543390794C287.5000071785669 352.08615540581786 296.5000074282562 435.6511577241829 319.0000080524794 441.38865788335977C341.5000086767026 447.1261580425367 350.50000892639184 380.3011561885938 373.00000955061506 380.6386561979571C395.5000101748383 380.97615620732046 404.5000104245276 441.15240787680546 427.00001104875076 443.0086579283039C449.500011672974 444.8649079798023 458.5000119226633 391.91115651069293 481.00001254688647 389.5486564451495C503.50001317110963 387.1861563796061 512.5000134207988 435.21240771201053 535.0000140450221 431.66865761369536C557.5000146692455 428.1249075153802 566.5000149189347 374.05740601537184 589.0000155431579 372.53865597323676C611.5000161673811 371.01990593110173 620.5000164170704 419.65365728036016 643.0000170412935 424.378657411447C665.5000176655168 429.10365754253394 685.7500182273176 401.293656770994 697.0000185394292 395.21865660245373 " transform="rotate(81, 400, 400)"></path><path d="M114.00000198364263 409.43574194776465C124.83333561752788 405.2107418305494 144.33333615852135 381.84324118225896 166.0000034262918 389.1557413851315C187.6666706940623 396.46824158800405 196.3333376011705 451.68574311991716 218.000004868941 444.53574292155287C239.6666721367115 437.3857427231886 248.3333390438197 355.8107404600327 270.0000063115902 354.835740432983C291.6666735793607 353.86074040593337 300.33334048646896 434.330742638433 322.0000077542394 439.8557427917144C343.6666750220099 445.3807429449959 352.3333419291181 381.03074115971754 374.0000091968886 381.3557411687341C395.6666764646591 381.6807411777507 404.3333433717673 439.6282427854029 426.0000106395378 441.4157428349939C447.66667790730827 443.203242884585 456.3333448144165 392.2107414698871 478.00001208218697 389.9357414067712C499.66667934995746 387.66074134365533 508.33334625706556 433.90824262671146 530.0000135248362 430.4957425320376C551.6666807926067 427.08324243736377 560.3333476997147 375.0182409929113 582.0000149674854 373.55574095233675C603.6666822352558 372.0932409117622 612.3333491423641 418.92574221104815 634.0000164101345 423.47574233727994C655.666683677905 428.0257424635118 675.1666842188985 401.2457417205474 686.0000178527837 395.39574155824937 " transform="rotate(78, 400, 400)"></path><path d="M125.00000190734869 409.07282688857896C135.41666886300757 405.010326775872 154.1666693831936 382.54157615251574 175.00000329451137 389.5728263475855C195.83333720582914 396.60407654265526 204.16667077035626 449.6978280156486 225.00000468167406 442.82282782491376C245.83333859299182 435.9478276341789 254.16667215751897 357.5103254580674 275.00000606883674 356.57282543205815C295.8333399801545 355.6353254060488 304.16667354468166 433.01032755268307 325.0000074559994 438.3228277000691C345.8333413673172 443.63532784745513 354.16667493184434 381.76032613084135 375.00000884316205 382.0728261395111C395.8333427544799 382.38532614818087 404.166676319007 438.10407769400024 425.0000102303248 439.82282774168397C445.83334414164256 441.5415777893677 454.1666777061697 392.5103264290813 475.0000116174875 390.32282636839295C495.83334552880524 388.13532630770453 504.1666790933323 432.6040775414124 525.0000130046501 429.3228274503798C545.8333469159679 426.0415773593473 554.166680480495 375.97907597045065 575.0000143918128 374.5728259314367C595.8333483031306 373.16657589242277 604.1666818676579 418.1978271417361 625.0000157789755 422.57282726311286C645.8333496902933 426.9478273844896 664.5833502104794 401.1978266701008 675.0000171661382 395.572826514045 " transform="rotate(75, 400, 400)"></path><path d="M136.00000183105476 408.70991945878774C146.00000210848728 404.80991935058904 164.00000260786584 383.23991875216706 184.00000316273093 389.989918939434C204.00000371759597 396.739919126701 212.000003939542 447.70992054077465 232.00000449440708 441.1099203576691C252.00000504927215 434.50992017456366 260.0000052712182 359.20991808549667 280.0000058260833 358.30991806052776C300.0000063809483 357.4099180355588 308.00000660289436 431.6899200963277 328.00000715775946 436.7899202378183C348.00000771262455 441.8899203793089 356.00000793457053 382.48991873135964 376.0000084894356 382.7899187396826C396.00000904430067 383.0899187480056 404.0000092662467 436.5799202319922 424.0000098211118 438.2299202777686C444.0000103759769 439.879920323545 452.0000105979229 392.80991901767 472.000011152788 390.70991895940915C492.000011707653 388.6099189011483 500.00001192959905 431.29992008550784 520.0000124844642 428.1499199981166C540.0000130393292 424.99991991072534 548.0000132612753 376.93991857738456 568.0000138161404 375.5899185399312C588.0000143710055 374.2399185024778 596.0000145929514 417.46991970181864 616.0000151478165 421.6699198183403C636.0000157026815 425.86991993486197 654.00001620206 401.1499192490487 664.0000164794926 395.74991909923517 " transform="rotate(72, 400, 400)"></path><path d="M146.9999864959717 408.3470005849047C156.5833200951779 404.6095004812143 173.83332057374906 383.9382499077266 192.9999877721614 390.40700008719074C212.16665497057375 396.8757502666549 219.8333218499387 445.72200162180883 238.99998904835104 439.39700144633275C258.1666562467634 433.0720012708567 265.8333231261284 360.9094992688341 284.9999903245407 360.0469992449056C304.1666575229531 359.18449922097705 311.83332440231806 430.3695011958805 330.9999916007304 435.2570013314757C350.1666587991428 440.1445014670708 357.83332567850766 383.2194998877861 376.99999287692003 383.5069998957623C396.1666600753324 383.7944999037385 403.8333269546974 435.05575132589234 422.99999415310975 436.6370013697614C442.1666613515221 438.21825141363036 449.83332823088705 393.1095001621669 468.9999954292994 391.0970001063336C488.16666262771173 389.0845000505003 495.83332950707666 429.9957511855115 514.9999967054891 426.9770011017615C534.1666639039015 423.9582510180116 541.8333307832664 377.90074974022673 560.9999979816788 376.6069997043339C580.1666651800912 375.313249668441 587.8333320594561 416.74200081780936 606.9999992578685 420.76700092947596C626.1666664562807 424.79200104114256 643.4166669348518 401.10200038390485 653.000000534058 395.92700024033354 " transform="rotate(69, 400, 400)"></path><path d="M157.99998641967778 407.98408934041623C167.1666533406576 404.40908924123414 183.6666537984213 384.6365886926807 201.99998764038094 390.824088864342C220.33332148234058 397.0115890360034 227.66665501912445 443.73409033223754 245.9999888610841 437.6840901643909C264.33332270304373 431.6340899965442 271.6666562398276 362.60908808156614 289.99999008178725 361.7840880586779C308.3333239237469 360.95908803578976 315.6666574605308 429.0490899248279 333.99999130249046 433.7240900545276C352.3333251444501 438.3990901842273 359.6666586812339 383.94908867360715 377.99999252319355 384.22408868123654C396.3333263651532 384.499088688866 403.6666599019371 433.531590049187 421.99999374389677 435.0440900911487C440.3333275858564 436.5565901331104 447.6666611226403 393.4090889360583 465.9999949645999 391.4840888826526C484.3333288065595 389.55908882924683 491.6666623433434 428.6915899149097 509.9999961853031 425.80408983480106C528.3333300272627 422.9165897546924 535.6666635640465 378.8615885324634 553.9999974060063 377.6240884981311C572.3333312479659 376.38658846379883 579.6666647847499 416.0140895631946 597.9999986267094 419.86408967000614C616.3333324686689 423.7140897768177 632.8333329264326 401.0540891481555 641.9999998474125 396.1040890108264 " transform="rotate(66, 400, 400)"></path><path d="M168.99998634338385 407.62117428123054C177.7499865861373 404.20867418655666 193.49998702309355 385.33492366293746 210.9999875086005 391.24117382679606C228.4999879941074 397.1474239906546 235.49998818831023 441.74617522796905 252.99998867381714 435.97117506775174C270.49998915932406 430.19617490753444 277.49998935352687 364.30867307960085 294.9999898390338 363.52117305775306C312.4999903245407 362.7336730359052 319.4999905187435 427.728674839078 336.99999100425043 432.19117496288226C354.49999148975735 436.6536750866865 361.49999168396016 384.6786736447309 378.9999921694671 384.9411736520135C396.49999265497405 385.20367365929616 403.4999928491768 432.00742495778445 420.9999933346837 433.45117499783873C438.4999938201907 434.8949250378931 445.4999940143935 393.7086738952525 462.9999944999004 391.87117384427427C480.4999949854073 390.03367379329603 487.4999951796101 427.3874248296106 504.99999566511707 424.6311747531433C522.4999961506239 421.8749246766759 529.4999963448267 379.82242351000275 546.9999968303338 378.64117347723106C564.4999973158407 377.4599234444593 571.4999975100434 415.2861744938825 588.9999979955503 418.961174595839C606.4999984810572 422.63617469779547 622.2499989180135 401.0061740977089 630.999999160767 396.281173966622 " transform="rotate(63, 400, 400)"></path><path d="M179.9999862670899 407.2582668514393C188.33331983161702 404.0082667612737 203.3333202477658 386.03326626258877 219.99998737682003 391.6582664186446C236.66665450587425 397.28326657470035 243.33332135749595 439.7582677530951 259.9999884865502 434.25826760050717C276.6666556156044 428.7582674479193 283.33332246722614 366.0082657070301 299.99998959628033 365.25826568622267C316.6666567253345 364.50826566541525 323.3333235769563 426.4082673827226 339.9999907060105 430.65826750063144C356.6666578350647 434.9082676185403 363.3333246866864 385.40826624524925 379.9999918157406 385.65826625218506C396.6666589447948 385.90826625912086 403.33332579641655 430.48326749577643 419.9999929254708 431.85826753392337C436.666660054525 433.2332675720703 443.3333269061467 394.0082664838412 459.9999940352009 392.2582664352905C476.6666611642551 390.5082663867398 483.33332801587676 426.08326737370606 499.99999514493106 423.45826730088004C516.6666622739854 420.833267228054 523.333329125607 380.78326611693666 539.9999962546613 379.65826608572553C556.6666633837156 378.53326605451434 563.3333302353371 414.5582670539651 579.9999973643913 418.05826715106645C596.6666644934455 421.55826724816785 611.6666649095944 400.9582666766568 619.9999984741214 396.4582665518122 " transform="rotate(60, 400, 400)"></path><path d="M190.99998619079594 406.8953479775563C198.9166530770967 403.80784789189903 213.16665347243807 386.7315974181483 228.99998724503956 392.0753475664013C244.83332101764108 397.4190977146543 251.1666545266817 437.77034883412927 266.99998829928325 432.5453486891708C282.8333220718847 427.32034854421227 289.16665558092535 367.7078468903676 304.99998935352687 366.9953468706005C320.83332312612833 366.28284685083344 327.166656635169 425.08784848227543 342.9999904077705 429.1253485942889C358.833324180372 433.16284870630227 365.1666576894126 386.13784740167574 380.9999914620141 386.37534740826476C396.8333252346156 386.6128474148538 403.1666587436563 428.95909858967656 418.99999251625775 430.26534862591615C434.83332628885927 431.5715986621558 441.1666597978999 394.3078476283381 456.99999357050143 392.645347582215C472.8333273431029 390.9828475360918 479.1666608521435 424.7790984737097 494.99999462474506 422.285348404525C510.8333283973466 419.79159833534027 517.1666619063872 381.7440972797788 532.9999956789886 380.6753472501282C548.8333294515903 379.6065972204776 555.1666629606309 413.83034816995576 570.9999967332324 417.1553482622021C586.8333305058338 420.48034835444844 601.0833309011753 400.91034781151296 608.9999977874759 396.63534769291056 " transform="rotate(57, 400, 400)"></path><path d="M201.999986114502 406.5324386404165C209.49998632257638 403.60743855926745 222.99998669711033 387.42993811045096 237.99998711325912 392.4924382509012C252.99998752940792 397.5549383913514 258.99998769586745 435.78243945190667 273.99998811201624 430.8324393145775C288.9999885281651 425.88243917724844 294.99998869462456 369.4074376104482 309.9999891107734 368.7324375917215C324.9999895269222 368.0574375729948 330.99998969338174 423.7674391185715 345.99999010953053 427.59243922468943C360.9999905256793 431.4174393308074 366.9999906921388 386.8674380948454 381.99999110828765 387.0924381010876C396.99999152443644 387.31743810732985 402.99999169089597 427.43493922031985 417.99999210704476 428.6724392546521C432.99999252319355 429.9099392889844 438.99999268965314 394.6074383095782 453.99999310580193 393.03243826588255C468.9999935219507 391.4574382221869 474.9999936884102 423.47493911045655 489.99999410455905 421.1124390449131C504.9999945207079 418.7499389793697 510.9999946871674 382.7049379793641 525.9999951033162 381.6924379512741C540.9999955194651 380.679937923184 546.9999956859245 413.10243882268963 561.9999961020733 416.2524389100809C576.9999965182221 419.40243899747213 590.499996892756 400.8624384831122 597.9999971008303 396.81243837075203 " transform="rotate(54, 400, 400)"></path><path d="M212.99998603820805 406.16952930327665C220.08331956805608 403.4070292266359 232.8333199217826 388.1282788027537 246.99998698147868 392.9095289354011C261.16665404117475 397.6907790680485 266.8333208650532 433.794530069684 280.9999879247493 429.1195299399843C295.16665498444536 424.4445298102846 300.83332180832383 371.1070283305288 314.99998886801995 370.4695283128425C329.166655927716 369.8320282951562 334.83332275159444 422.44702975486746 348.99998981129056 426.05952985509C363.1666568709866 429.6720299553125 368.83332369486504 387.59702878801505 382.99999075456117 387.8095287939105C397.16665781425723 388.022028799806 402.8333246381357 425.91077985096314 416.9999916978318 427.0795298833881C431.1666587575279 428.248279915813 436.8333255814063 394.9070289908183 450.99999264110244 393.41952894955017C465.1666597007985 391.93202890828206 470.8333265246769 422.17077974720337 484.99999358437304 419.93952968530124C499.16666064406917 417.7082796233991 504.8333274679476 383.6657786789494 518.9999945276437 382.7095286524199C533.1666615873398 381.7532786258904 538.8333284112182 412.3745294754235 552.9999954709143 415.3495295579597C567.1666625306103 418.3245296404959 579.9166628843368 400.8145291547115 586.9999964141849 396.98952904859357 " transform="rotate(51, 400, 400)"></path><path d="M223.9999859619141 405.80661042939363C230.6666528135358 403.2066103572612 242.66665314645485 388.8266099583132 255.99998684969822 393.32661008315785C269.3333205529416 397.8266102080025 274.66665403423895 431.80661115071825 287.99998773748234 427.40661102864794C301.3333214407257 423.00661090657763 306.6666549220231 372.8066095138663 319.99998862526644 372.2066094972203C333.33332232850984 371.6066094805744 338.6666558098072 421.1266108544203 351.99998951305054 424.52661094874736C365.33332321629393 427.92661104307444 370.6666566975913 388.32660994444154 383.9999904008347 388.52660994999025C397.3333241040781 388.7266099555389 402.66665758537545 424.3866109448633 415.99999128861884 425.48661097538087C429.3333249918621 426.5866110058985 434.66665847315954 395.20661013531515 447.9999921764029 393.8066100964746C461.3333258796463 392.40661005763405 466.6666593609436 420.866610847207 479.99999306418704 418.7666107889462C493.33332676743044 416.66661073068536 498.6666602487278 384.62660984179155 511.99999395197113 383.7266098168226C525.3333276552146 382.8266097918537 530.666661136512 411.64661059141423 543.9999948397553 414.4466106690954C557.3333285429986 417.24661074677647 569.3333288759177 400.76661028956767 575.9999957275394 397.16661018969194 " transform="rotate(48, 400, 400)"></path><path d="M234.99998588562016 405.44369727755657C241.2499860590155 403.00619720993234 252.49998637112708 389.5249468359186 264.99998671791775 393.7436969529605C277.4999870647084 397.9624470700023 282.49998720342467 429.81869795379833 294.99998755021534 425.6936978393574C307.499987897006 421.5686977249165 312.4999880357223 374.50619641924965 324.999988382513 373.943696403644C337.49998872930365 373.38119638803846 342.49998886801995 419.806197676019 354.9999892148106 422.99369776445064C367.4999895616013 426.1811978528823 372.49998970031754 389.056196822914 384.9999900471082 389.24369682811584C397.4999903938989 389.4311968333177 402.49999053261513 422.86244776080935 414.9999908794058 423.89369778941955C427.49999122619647 424.9249478180298 432.4999913649127 395.50619700185797 444.9999917117034 394.19369696544493C457.49999205849406 392.88119692903194 462.4999921972103 419.5624476692566 474.999992544001 417.59369761463705C487.4999928907917 415.6249475600175 492.49999302950795 385.58744672667956 504.9999933762987 384.7436967032712C517.4999937230893 383.8999466798628 522.4999938618056 410.91869742945084 534.9999942085963 413.5436975022769C547.4999945553868 416.16869757510295 558.7499948674986 400.71869714646965 564.9999950408939 397.3436970528362 " transform="rotate(45, 400, 400)"></path><path d="M245.9999858093262 405.0807860330681C251.83331930449518 402.8057859699522 262.33331959579937 390.2232856208727 273.9999865861373 394.16078573011174C285.66665357647526 398.0982858393508 290.33332037261044 427.8307866642271 301.9999873629484 423.98078655741557C313.6666543532864 420.13078645060403 318.3333211494216 376.2057852319816 329.9999881397595 375.6807852174164C341.66665513009747 375.15578520285123 346.33332192623266 418.48578640496635 357.9999889165706 421.46078648750256C369.66665590690855 424.4357865700388 374.3333227030438 389.785785608735 385.99998969338174 389.9607856135901C397.6666566837197 390.13578561844514 402.3333234798548 421.338286484104 413.9999904701928 422.3007865108069C425.6666574605308 423.26328653750977 430.33332425666595 395.80578577574937 441.99999124700395 394.5807857417639C453.66665823734184 393.3557857077784 458.3333250334771 418.2582863986548 469.999992023815 416.42078634767654C481.66665901415297 414.58328629669836 486.33332581028816 386.5482855189162 497.99999280062616 385.7607854970684C509.6666597909641 384.9732854752206 514.3333265870992 410.1907861748361 525.9999935774372 412.64078624280705C537.6666605677751 415.090786310778 548.1666608590793 400.6707859107203 553.9999943542483 397.5207858233291 " transform="rotate(42, 400, 400)"></path><path d="M256.99998573303225 404.7178690665337C262.41665254997486 402.6053690079261 272.1666528204716 390.9216186837808 282.9999864543569 394.5778687852171C293.8333200882421 398.2341188866534 298.1666535417962 425.8428696526099 308.99998717568144 422.26786955342783C319.83332080956666 418.6928694542457 324.1666542631208 377.9053683226677 334.999987897006 377.4178683091429C345.8333215308913 376.93036829561805 350.1666549844454 417.16536941186786 360.99998861833063 419.9278694885086C371.8333222522159 422.69036956514935 376.16665570577 390.51536867251014 386.99998933965526 390.6778686770184C397.8333229735405 390.8403686815267 402.1666564270946 419.8141194853528 412.9999900609798 420.7078695101483C423.83332369486504 421.6016195349439 428.1666571484192 396.10536882759493 438.9999907823044 394.967868796037C449.83332441618967 393.83036876447903 454.16665786974374 416.95411940600707 464.999991503629 415.2478693586702C475.8333251375143 413.54161931133325 480.1666585910683 387.509118589107 490.99999222495364 386.7778685688197C501.83332585883886 386.0466185485325 506.166659312393 409.46286919817544 516.9999929462782 411.73786926129134C527.8333265801634 414.01286932440723 537.5833268506601 400.6228689529251 542.9999936676028 397.69786887177605 " transform="rotate(39, 400, 400)"></path><path d="M267.9999856567383 404.3549578220452C272.99998579545456 402.40495776794586 281.9999860451438 391.6199574687349 291.99998632257643 394.99495756236837C301.9999866000089 398.3699576560019 305.99998671098194 423.8549583630387 315.9999869884145 420.55495827148593C325.99998726584704 417.2549581799332 329.99998737682006 379.60495713539973 339.99998765425255 379.1549571229152C349.9999879316851 378.70495711043077 353.9999880426581 415.8449581408152 363.99998832009067 418.3949582115605C373.9999885975232 420.94495828230583 377.9999887084962 391.24495745833116 387.9999889859287 391.3949574624927C397.9999892633613 391.5449574666542 401.9999893743343 418.2899582086475 411.99998965176684 419.11495823153564C421.9999899291994 419.93995825442386 425.9999900401724 396.4049576014864 435.9999903176049 395.35495757235594C445.99999059503745 394.30495754322556 449.99999070601046 415.6499581354053 459.999990983443 414.0749580917097C469.99999126087556 412.49995804801404 473.9999913718486 388.46995738134365 483.9999916492811 387.79495736261697C493.9999919267137 387.11995734389023 497.99999203768664 408.7349579435607 507.9999923151192 410.8349580018215C517.9999925925517 412.93495806008235 526.999992842241 400.5749577171757 531.9999929809572 397.87495764226895 " transform="rotate(36, 400, 400)"></path><path d="M279.0000008392334 403.9920465775568C283.58333429972333 402.2045465279657 291.8333345286052 392.31829625368897 301.000001449585 395.41204633951963C310.1666683705648 398.50579642535035 313.8333351389567 421.8670470734674 323.0000020599366 418.8420469895441C332.16666898091637 415.8170469056207 335.83333574930833 381.3045459481317 345.00000267028815 380.8920459366876C354.166669591268 380.47954592524354 357.83333635965994 414.52454686976256 367.00000328063976 416.8620469346124C376.1666702016196 419.1995469994623 379.8333369700115 391.9745462441522 389.0000038909913 392.11204624796693C398.16667081197113 392.2495462517816 401.8333375803631 416.76579693194213 411.0000045013429 417.522046952923C420.16667142232274 418.2782969739038 423.8333381907147 396.7045463753778 433.00000511169446 395.74204634867493C442.1666720326743 394.779546321972 445.83333880106625 414.34579686480345 455.00000572204607 412.90204682474916C464.1666726430259 411.4582967846948 467.8333394114178 389.4307961735803 477.0000063323977 388.81204615641417C486.1666732533775 388.19329613924805 489.83334002176946 408.00704668894593 499.0000069427492 409.9320467423517C508.166673863729 411.85704679575747 516.4166740926108 400.5270464814264 521.0000075531008 398.05204641276185 " transform="rotate(33, 400, 400)"></path><path d="M290.00000076293946 403.629131518371C294.16666754520304 402.0041314732882 301.66666775327747 393.01663122394575 310.00000131780456 395.82913130197363C318.33333488233166 398.64163138000157 321.6666683081425 419.8791319691989 330.0000018726696 417.129131892905C338.33333543719675 414.379131816611 341.6666688630076 383.0041309461664 350.0000024275347 382.6291309357627C358.3333359920618 382.254130925359 361.66666941787264 413.2041317840127 370.0000029823998 415.3291318429671C378.3333365469269 417.4541319019215 381.66666997273774 392.704131215276 390.00000353726483 392.8291312187439C398.3333371017919 392.9541312222118 401.66667052760283 415.2416318405396 410.0000040921299 415.92913185961305C418.333337656657 416.6166318786865 421.6666710824679 397.004131334572 430.00000464699497 396.12913131029666C438.3333382115221 395.2541312860213 441.6666716373329 413.0416317795044 450.00000520186006 411.7291317430914C458.3333387663872 410.41663170667834 461.666672192198 390.3916311511197 470.00000575672516 389.8291311355141C478.3333393212523 389.26663111990854 481.6666727470631 407.2791316196339 490.0000063115902 409.0291316681846C498.3333398761173 410.7791317167353 505.8333400841917 400.4791314309798 510.00000686645524 398.22913136855743 " transform="rotate(30, 400, 400)"></path><path d="M301.00000068664554 403.26622027388254C304.75000079068275 401.80372023330807 311.5000009779497 393.7149700088998 319.00000118602406 396.2462200791249C326.5000013940985 398.77747014935005 329.5000014773283 417.8912206796276 337.00000168540265 415.4162206109631C344.5000018934771 412.94122054229854 347.5000019767068 384.7037197588984 355.00000218478124 384.36621974953505C362.50000239285566 384.0287197401717 365.5000024760854 411.88372051296005 373.00000268415977 413.79622056601903C380.5000028922342 415.708720619078 383.50000297546393 393.433720001097 391.00000318353835 393.5462200042181C398.5000033916127 393.65872000733924 401.5000034748425 413.71747056383424 409.00000368291694 414.33622058100036C416.5000038909913 414.9549705981665 419.5000039742211 397.3037201084634 427.00000418229547 396.5162200866156C434.5000043903699 395.7287200647678 437.50000447359963 411.7374705089026 445.00000468167406 410.5562204761309C452.5000048897485 409.37497044335913 455.5000049729782 391.35246994335637 463.00000518105264 390.84621992931136C470.50000538912707 390.33996991526635 473.5000054723568 406.55122036501916 481.0000056804312 408.12622040871474C488.5000058885056 409.7012204524104 495.25000607577255 400.4312201952304 499.0000061798097 398.40622013905033 " transform="rotate(27, 400, 400)"></path><path d="M312.00000061035155 402.9033042610225C315.33333403616246 401.6033042249563 321.3333342026219 394.41330402548226 328.0000010542436 396.66330408790463C334.6666679058653 398.9133041503269 337.333334646514 415.9033046216848 344.0000014981357 413.70330456064966C350.6666683497574 411.5033044996145 353.3333350904061 386.40330380325884 360.0000019420278 386.10330379493587C366.6666687936495 385.8033037866129 369.33333553429816 410.5633044735358 376.0000023859198 412.26330452069936C382.6666692375415 413.9633045678629 385.3333359781902 394.16330401854646 392.0000028298119 394.2633040213208C398.6666696814336 394.3633040240951 401.33333642208225 412.1933045187573 408.00000327370395 412.74330453401615C414.6666701253256 413.2933045492749 417.3333368659743 397.60330411398326 424.000003717596 396.903304094563C430.6666705692177 396.2033040751427 433.33333730986635 410.4333044699292 440.00000416148805 409.3833044407988C446.66667101310975 408.3333044116684 449.3333377537584 392.31330396722143 456.0000046053801 391.863303954737C462.6666714570018 391.4133039422525 465.3333381976505 405.8233043420328 472.0000050492722 407.22330438087334C478.66667190089385 408.6233044197139 484.6666720673534 400.3833041911095 488.0000054931642 398.58330414117165 " transform="rotate(24, 400, 400)"></path><path d="M323.0000005340576 402.5403901555111C325.9166672816421 401.4028901239531 331.1666674272942 395.1116399494134 337.0000009224632 397.0803900040329C342.83333441763216 399.0491400586525 345.1666678156997 413.9153904710906 351.0000013108687 411.9903904176848C356.8333348060377 410.0653903642791 359.16666820410535 388.10288975496786 365.0000016992743 387.84038974768526C370.8333351944433 387.57788974040267 373.16666859251086 409.2428903414602 379.00000208767983 410.73039038272833C384.8333355828488 412.21789042399644 387.1666689809164 394.8928899433446 393.0000024760854 394.9803899457721C398.83333597125437 395.06788994819965 401.16666936932194 410.6691403810291 407.00000286449097 411.1503903943805C412.83333635965994 411.63164040773194 415.1666697577275 397.90289002685176 421.0000032528965 397.290390009859C426.83333674806545 396.67788999286626 429.1666701461331 409.12914033830447 435.00000364130204 408.2103903128153C440.833337136471 407.29164028732623 443.16667053453864 393.2741398984352 449.0000040297076 392.8803898875112C454.8333375248766 392.48663987658733 457.16667092294415 405.0953902263951 463.0000044181131 406.3203902603806C468.8333379132821 407.5453902943661 474.0833380589342 400.3353900943372 477.0000048065187 398.7603900506416 " transform="rotate(21, 400, 400)"></path><path d="M334.0000004577637 402.17748081837124C336.5000005271218 401.2024807913216 341.00000065196645 395.8099806417161 346.00000079068275 397.49748068853285C351.000000929399 399.18498073534954 353.0000009848855 411.927481088868 358.0000011236018 410.2774810430916C363.00000126231805 408.6274809973152 365.00000131780456 389.80248047504847 370.0000014565208 389.57748046880624C375.0000015952371 389.352480462564 377.00000165072356 407.9224809777562 382.00000178943986 409.1974810131289C387.00000192815617 410.47248104850155 389.0000019836426 395.62248063651424 394.00000212235886 395.697480638595C399.00000226107517 395.7724806406757 401.0000023165617 409.14498101167237 406.0000024552779 409.55748102311645C411.0000025939942 409.96998103456053 413.00000264948073 398.2024807080918 418.000002788197 397.6774806935266C423.0000029269132 397.1524806789614 425.0000029823998 407.8249809750513 430.00000312111604 407.03748095320344C435.0000032598323 406.24998093135565 437.00000331531885 394.23498059802046 442.0000034540351 393.8974805886571C447.00000359275134 393.5599805792938 449.00000364823785 404.36748087912895 454.00000378695415 405.4174809082594C459.0000039256704 406.46748093738984 463.50000405051503 400.2874807659365 466.00000411987315 398.93748072848314 " transform="rotate(18, 400, 400)"></path><path d="M344.99999656677244 401.8145657591855C347.08332995790425 401.0020657366441 350.83333006194147 396.5083156119729 354.99999684420504 397.91456565098684C359.16666362646856 399.32081569000076 360.833330339374 409.9395659845994 364.99999712163753 408.5645659464525C369.1666639039011 407.1895659083055 370.8333306168065 391.50206547308323 374.9999973990701 391.3145654678814C379.16666418133366 391.12706546267947 380.83333089423905 406.60206589200635 384.99999767650263 407.66456592148353C389.16666445876615 408.72706595096076 390.8333311716716 396.352065607638 394.9999979539351 396.41456560937195C399.1666647361987 396.4770656111059 400.83333144910415 407.62081592026976 404.9999982313677 407.96456592980655C409.16666501363125 408.3083159393433 410.8333317265367 398.502065667286 414.9999985088002 398.06456565514833C419.1666652910638 397.6270656430106 420.8333320039692 406.5208158897522 424.99999878623277 405.86456587154566C429.16666556849634 405.2083158533392 430.83333228140174 395.19581557555983 434.9999990636653 394.91456556775705C439.1666658459289 394.63331555995427 440.8333325588343 403.63956580981693 444.9999993410978 404.5145658340923C449.1666661233614 405.38956585836763 452.9166662273986 400.2395657154899 454.99999961853035 399.1145656842787 " transform="rotate(15, 400, 400)"></path><path d="M355.9999964904785 401.4516526073484C357.66666320338396 400.80165258931527 360.6666632866137 397.2066524895783 363.99999671242455 398.3316525207895C367.3333301382354 399.4566525520006 368.66666350855974 407.95165278767956 371.9999969343706 406.85165275716196C375.33333036018144 405.7516527266444 376.6666637305058 393.2016523784666 379.9999971563166 393.0516523743051C383.3333305821275 392.9016523701436 384.6666639524518 405.28165271360507 387.9999973782626 406.13165273718687C391.3333308040735 406.9816527607686 392.66666417439785 397.0816524861104 395.99999760020864 397.13165248749755C399.33333102601955 397.1816524888847 400.6666643963439 406.09665273621584 403.9999978221547 406.37165274384523C407.33333124796553 406.6466527514746 408.6666646182899 398.8016525338288 411.9999980441007 398.45165252411863C415.33333146991157 398.1016525144085 416.6666648402359 405.21665271180177 419.99999826604676 404.6916526972366C423.3333316918576 404.1666526826713 424.66666506218195 396.1566524604479 427.9999984879928 395.9316524542057C431.33333191380365 395.7066524479634 432.666665284128 402.91165264785354 435.99999870993884 403.61165266727386C439.33333213574963 404.3116526866941 442.3333322189794 400.1916525723919 443.9999989318849 399.291652547423 " transform="rotate(12, 400, 400)"></path><path d="M366.9999964141846 401.0887394555113C368.2499964488636 400.6012394419865 370.499996511286 397.9049893671837 372.9999965806441 398.7487393905921C375.49999665000223 399.59248941400045 376.49999667774546 405.9637395907597 378.99999674710364 405.1387395678715C381.49999681646176 404.3137395449833 382.49999684420504 394.9012392838499 384.9999969135631 394.7887392807288C387.4999969829213 394.6762392776077 388.4999970106645 403.9612395352038 390.9999970800227 404.59873955289015C393.4999971493808 405.23623957057646 394.49999717712404 397.8112393645828 396.99999724648217 397.84873936562315C399.49999731584035 397.8862393666635 400.4999973435836 404.57248955216187 402.9999974129417 404.7787395578839C405.4999974822998 404.98498956360595 406.4999975100431 399.1012394003716 408.9999975794012 398.838739393089C411.49999764875935 398.5762393858064 412.49999767650263 403.9124895338513 414.99999774586075 403.51873952292743C417.4999978152189 403.1249895120035 418.49999784296216 397.1174893453359 420.9999979123203 396.94873934065424C423.4999979816784 396.7799893359726 424.4999980094217 402.18373948589016 426.9999980787798 402.7087395004554C429.49999814813793 403.2337395150206 431.74999821056025 400.14373942929393 432.99999824523934 399.46873941056725 " transform="rotate(9, 400, 400)"></path><path d="M378.0000001525879 400.7258263036742C378.8333335090406 400.40082629465763 380.3333335506555 398.6033262447892 382.0000002635609 399.16582626039474C383.66666697646633 399.7283262760003 384.3333336616285 403.9758263938398 386.0000003745339 403.425826378581C387.66666708743935 402.8758263633222 388.3333337726015 396.60082618923326 390.0000004855069 396.5258261871525C391.66666719841237 396.4508261850718 392.33333388357454 402.64082635680256 394.00000059647994 403.06582636859343C395.6666673093854 403.4908263803843 396.33333399454756 398.5408262430552 398.00000070745295 398.5658262437488C399.6666674203584 398.5908262444424 400.3333341055206 403.0483263681079 402.000000818426 403.1858263719226C403.6666675313314 403.32332637573734 404.33333421649354 399.4008262669144 406.000000929399 399.22582626205934C407.66666764230445 399.0508262572043 408.33333432746656 402.6083263559009 410.000001040372 402.3458263486183C411.66666775327747 402.0833263413357 412.3333344384396 398.0783262302239 414.00000115134503 397.9658262271028C415.6666678642505 397.8533262239817 416.3333345494126 401.4558263239268 418.00000126231805 401.8058263336369C419.66666797522345 402.15582634334703 421.16666801683834 400.095826286196 422.00000137329107 399.64582627371146 " transform="rotate(6, 400, 400)"></path><path d="M389.00000007629393 400.3629131518371C389.4166667545203 400.20041314732885 390.1666667753277 399.3016631223946 391.00000013178044 399.58291313019737C391.83333348823317 399.86416313800015 392.1666668308143 401.98791319691986 393.00000018726695 401.7129131892905C393.8333335437197 401.4379131816611 394.16666688630073 398.30041309461666 395.00000024275346 398.2629130935763C395.8333335992062 398.2254130925359 396.1666669417873 401.3204131784013 397.00000029823997 401.5329131842967C397.8333336546927 401.74541319019215 398.16666699727375 399.2704131215276 399.0000003537265 399.2829131218744C399.8333337101792 399.2954131222212 400.16666705276026 401.524163184054 401.000000409213 401.5929131859613C401.8333337656657 401.66166318786867 402.16666710824677 399.7004131334572 403.0000004646995 399.61291313102964C403.8333338211522 399.5254131286021 404.1666671637333 401.30416317795044 405.000000520186 401.17291317430914C405.83333387663873 401.04166317066785 406.1666672192198 399.039163115112 407.0000005756725 398.98291311355143C407.83333393212524 398.9266631119909 408.1666672747063 400.7279131619634 409.000000631159 400.90291316681845C409.8333339876117 401.0779131716735 410.5833340084192 400.04791314309796 411.00000068664554 399.82291313685573 " transform="rotate(3, 400, 400)"></path></g></svg>